<?xml version="1.0" encoding="UTF-8"?>
<!DOCTYPE svg PUBLIC "-//W3C//DTD SVG 1.1//EN" "http://www.w3.org/Graphics/SVG/1.1/DTD/svg11.dtd">
<!-- Creator: CorelDRAW 2019 (64 Bit) -->
<svg xmlns="http://www.w3.org/2000/svg" xml:space="preserve" width="201.597mm" height="72.7457mm" version="1.1" style="shape-rendering:geometricPrecision; text-rendering:geometricPrecision; image-rendering:optimizeQuality; fill-rule:evenodd; clip-rule:evenodd"
viewBox="0 0 16818.45 6068.89"
 xmlns:xlink="http://www.w3.org/1999/xlink">
 <defs>
  <style type="text/css">
   <![CDATA[
    .fil0 {fill:#BFE7FA;fill-rule:nonzero}
    .fil34 {fill:#0F2949;fill-rule:nonzero}
    .fil35 {fill:#163560;fill-rule:nonzero}
    .fil10 {fill:#233862;fill-rule:nonzero}
    .fil28 {fill:#2B478B;fill-rule:nonzero}
    .fil37 {fill:#2C3A64;fill-rule:nonzero}
    .fil41 {fill:#2E3552;fill-rule:nonzero}
    .fil15 {fill:#38568A;fill-rule:nonzero}
    .fil17 {fill:#3F6098;fill-rule:nonzero}
    .fil11 {fill:#466AA5;fill-rule:nonzero}
    .fil26 {fill:#578E9B;fill-rule:nonzero}
    .fil16 {fill:#5F87C1;fill-rule:nonzero}
    .fil27 {fill:#74ACBE;fill-rule:nonzero}
    .fil9 {fill:#8E3900;fill-rule:nonzero}
    .fil23 {fill:#A53232;fill-rule:nonzero}
    .fil18 {fill:#A53D38;fill-rule:nonzero}
    .fil8 {fill:#B25414;fill-rule:nonzero}
    .fil33 {fill:#B64C41;fill-rule:nonzero}
    .fil1 {fill:#B8E0AF;fill-rule:nonzero}
    .fil38 {fill:#BBD4FF;fill-rule:nonzero}
    .fil22 {fill:#BC3F3F;fill-rule:nonzero}
    .fil6 {fill:#C2D9D5;fill-rule:nonzero}
    .fil31 {fill:#CB7D45;fill-rule:nonzero}
    .fil4 {fill:#CC621B;fill-rule:nonzero}
    .fil39 {fill:#CC6E2E;fill-rule:nonzero}
    .fil24 {fill:#D2E4FF;fill-rule:nonzero}
    .fil5 {fill:#D4E0F2;fill-rule:nonzero}
    .fil30 {fill:#D86713;fill-rule:nonzero}
    .fil7 {fill:#D8A47E;fill-rule:nonzero}
    .fil32 {fill:#D9935C;fill-rule:nonzero}
    .fil2 {fill:#DFE9F9;fill-rule:nonzero}
    .fil3 {fill:#E58638;fill-rule:nonzero}
    .fil12 {fill:#ED7D2B;fill-rule:nonzero}
    .fil36 {fill:#ED985F;fill-rule:nonzero}
    .fil40 {fill:#EDF4FF;fill-rule:nonzero}
    .fil25 {fill:#EE9849;fill-rule:nonzero}
    .fil20 {fill:#EF9E67;fill-rule:nonzero}
    .fil29 {fill:#F1A34F;fill-rule:nonzero}
    .fil14 {fill:#F99746;fill-rule:nonzero}
    .fil21 {fill:#FFA412;fill-rule:nonzero}
    .fil19 {fill:#FFB27D;fill-rule:nonzero}
    .fil13 {fill:#FFB93E;fill-rule:nonzero}
   ]]>
  </style>
 </defs>
 <g id="Camada_x0020_1">
  <metadata id="CorelCorpID_0Corel-Layer"/>
  <g id="_2726192344416">
   <path class="fil0" d="M16339.91 4155.03c-0.62,31.76 -1.84,62.85 -3.2,93.94 -1.84,31.1 -3.68,61.57 -5.51,92.04 -5.03,65.33 -11.9,129.99 -20.61,192.83 -10.55,80.86 -23.54,160.46 -38.51,236.98 -4.41,21.77 -8.7,42.9 -13.12,64.04 -1.84,8.72 -3.68,16.82 -5.51,24.84l-1.35 4.4c-2.45,11.18 -4.91,22.38 -7.48,33.56 -1.84,10.57 -4.29,21.13 -6.74,31.14 -9.32,38.52 -19.25,76.46 -29.19,113.18 -0.61,3.09 -1.84,6.18 -2.57,9.33 -1.23,3.72 -1.84,7.42 -3.07,11.19 -11.16,41.66 -23.05,81.47 -34.83,120.65 -16.18,52.91 -32.99,103.29 -49.79,152.37 -4.91,14.33 -9.94,28.67 -14.97,42.33 -7.47,20.53 -14.83,41.05 -21.7,60.95 0,0 0,0 0,0.62 -6.87,16.18 -12.39,31.08 -18.65,46.66 -9.32,24.85 -19.25,48.52 -28.7,72.14 -14.22,34.86 -28.57,68.42 -42.19,99.51 -3.19,7.48 -6.25,14.33 -9.32,21.14 -6.26,14.34 -12.51,28 -18.15,41.05 -12.39,27.37 -24.78,53.53 -36.67,77.75 -11.77,24.29 -22.93,47.28 -33.6,68.43 -39.74,78.36 -73.34,143.08 -88.3,171.07 -5.03,9.95 -8.09,15.52 -8.09,15.52 0,0 -15324.31,1.85 -15324.93,1.24 -404.9,-904.96 54.11,-1596.6 1014.45,-2378.42 719.01,-586.57 2054.39,-789.3 1706.09,-2027.66 -411.13,-1459.78 1531.32,-1937.47 3470.02,-1481.57 1516.38,356.4 2912.1,1621.5 3963.28,1197.32 2036.92,-822.26 3013.49,-455.92 3577.63,-218.94 18.03,7.47 36.06,14.92 53.47,23.02 82.66,36.07 166.05,77.1 250.06,122.53 17.41,9.32 34.83,19.26 52.86,29.22 58.37,32.98 117.49,68.43 176.6,106.37 27.36,18.04 54.82,36.07 82.66,54.72 1.97,1.25 4.42,2.49 6.26,4.35 38.02,25.5 75.91,51.62 113.94,79.63 44.15,32.34 88.3,65.93 133.06,101.37 78.97,62.19 157.95,129.37 237.55,200.89 30.53,27.39 60.33,55.38 90.88,83.98 35.44,32.96 69.66,66.55 102.65,100.77 30.42,31.73 60.34,63.44 88.92,95.16 9.93,10.57 19.86,21.77 29.8,32.98 24.28,27.36 47.21,55.34 70.27,82.71 21.22,25.5 41.09,51.62 60.95,77.13 7.48,9.95 14.97,19.91 22.44,29.22 11.77,16.18 23.55,31.73 34.83,47.9 24.29,34.2 47.83,67.79 69.66,102.01 29.8,45.4 57.89,90.81 83.88,136.23 3.8,6.17 7.48,12.42 11.28,19.29 3.07,5.56 6.26,11.18 9.33,16.75 8.7,15.58 17.41,31.76 26.12,47.28 58.5,110.08 108.16,220.79 149.87,331.48 2.45,6.87 5.02,13.72 7.47,20.59 4.3,11.19 8.1,22.37 11.77,33.55 7.48,20.53 14.35,41.05 21.22,61.57 6.25,19.91 12.38,40.42 18.64,60.33 0.61,2.54 1.84,5.61 2.45,8.09 5.03,16.82 9.32,32.95 14.35,49.76 8.09,29.87 16.18,59.72 23.06,89.57 11.15,47.28 21.09,93.95 29.8,141.17 0.61,4.38 1.84,9.39 2.45,13.71 8.09,45.44 14.96,90.19 21.22,134.99 21.09,160.46 28.57,318.45 25.51,472.05z"/>
   <path class="fil1" d="M1871.48 6046.79c0,0 129.53,-370.79 553.02,-395.3 423.51,-24.46 658.82,-353.48 1096.44,-276.51 437.61,76.97 470.48,400.03 654.74,489.14 90.9,43.97 362.62,16.42 656.88,-11.12 302.23,-28.35 628.25,-56.63 806.48,-7.42 351.78,97.14 516.63,-144.6 843.78,-249.13 327.21,-104.57 541.8,38.79 777.21,201.84 235.4,163.1 564.87,-18.32 550.47,240.86l-5939.02 7.64z"/>
   <path class="fil2" d="M7509.37 4177.46c-1214.63,-35.24 -2495.76,-1178.8 -2860.94,-1529.53l-415.04 0 3275.98 0 0 1529.53z"/>
   <path class="fil3" d="M4235.24 2383.08l-0.73 102.99 -21.39 3096.94c-0.04,7.43 -2.69,13.44 -5.96,13.44l-1.59 0c-6.41,0 -11.65,-11.75 -11.8,-26.48l-29.62 -2989.37 -1.97 -197.52 73.05 0z"/>
   <path class="fil4" d="M4235.24 2383.09l-0.73 102.98c-19.54,14.03 -47.51,41.75 -70.37,94.53l-1.95 -197.51 73.05 0z"/>
   <path class="fil5" d="M7509.37 5709.01l-382.25 0c-133.18,-84.45 -267.85,-148.15 -429.15,-148.15 -66.57,0 -137.69,10.85 -215.16,35.59 -93.83,29.98 -174.29,71.24 -249.68,112.56l-2216.22 0c-95.78,-126.84 -208.61,-283.47 -495.98,-334.02 -21.51,-3.76 -42.46,-6.57 -63.03,-8.48l0 -2718.57 706.91 0 28.97 2922.04c0.15,14.73 5.39,26.48 11.8,26.48l1.59 0c3.26,0 5.91,-6.01 5.96,-13.44l20.27 -2935.08 415.04 0c365.18,350.72 1646.32,1494.29 2860.94,1529.53l0 1531.55z"/>
   <path class="fil6" d="M7127.12 5709.01l-893.99 0c75.38,-41.32 155.85,-82.58 249.68,-112.56 77.47,-24.74 148.59,-35.59 215.16,-35.59 161.3,0 295.97,63.7 429.15,148.15zm-3110.21 0l-559.01 0 0 -342.51c20.56,1.91 41.52,4.72 63.03,8.48 287.37,50.56 400.2,207.18 495.98,334.02z"/>
   <path class="fil7" d="M4207.16 5596.45l-1.59 0c-6.41,0 -11.65,-11.75 -11.8,-26.48l-28.97 -2922.04 68.58 0 -20.27 2935.08c-0.04,7.43 -2.69,13.44 -5.96,13.44z"/>
   <path class="fil1" d="M8596.61 6028.02l-399.52 0c-21.42,-18.16 14.83,-59.37 52.68,-62.19 16.41,-1.23 37.22,2.19 60.94,7.26 5.51,-73.03 36.93,-401.32 155.23,-388.1 133.01,14.78 0,144.54 -37.62,221.4 -27.84,56.89 -57.23,138.53 -70.67,177.04 10.79,2.37 21.98,4.67 33.4,6.76 17.65,-54.14 83.27,-236.25 166.7,-225.68 97.93,12.42 58.58,85.45 -10.85,128.81 -50.93,31.87 -113.52,77.19 -143.19,99.05 25.19,4.1 51.43,6.87 78.08,6.24 68.48,-1.57 101.88,18.55 114.82,29.41z"/>
   <path class="fil1" d="M756.14 6004.79c-21.69,-34.07 -86.96,-122.5 -173.89,-110.76 -94.72,12.71 104.62,75.17 165.64,111.04 -13.55,0.18 -25.2,-0.89 -33.76,-3.94 -40.8,-14.56 -110.67,13.33 -133.01,23.12l388.41 0c-2.67,-9.29 -9.67,-24.47 -27.76,-35.54 -6.37,-3.88 -19.19,-4.44 -35.75,-3.15 23.09,-27.2 39.14,-114.18 -25.15,-91.8 -46.97,16.31 -46.84,69.49 -42.24,100.91 -9.99,1.59 -20.12,3.15 -30.13,4.56 -19.34,-98.56 -87.73,-387.38 -226.38,-395.08 -140.54,-7.81 119.19,299.56 205.66,397.83 -11.07,1.35 -21.74,2.37 -31.63,2.81z"/>
   <path class="fil4" d="M7144.5 5218.07l-2.3 102.11 -16.09 711.55c-0.11,4.44 -3.76,7.92 -8.14,7.92 -7.65,0 -13.95,-6.02 -14.22,-13.61l-26.15 -673.71 -5.23 -134.27 72.14 0z"/>
   <path class="fil8" d="M7144.5 5218.07l-2.3 102.11c-20.36,6.79 -44.36,17.08 -64.61,32.15l-5.23 -134.27 72.14 0z"/>
   <path class="fil4" d="M3900.56 5218.07l-2.31 102.11 -16.11 711.55c-0.1,4.44 -3.73,7.92 -8.16,7.92 -7.63,0 -13.91,-6.02 -14.2,-13.61l-26.16 -673.71 -5.19 -134.27 72.13 0z"/>
   <path class="fil8" d="M3900.56 5218.07l-2.31 102.11c-20.33,6.79 -44.38,17.08 -64.63,32.15l-5.19 -134.27 72.13 0z"/>
   <path class="fil3" d="M7315.86 5252.32l-3658.76 0c-23.09,0 -41.99,-18.89 -41.99,-42.01l0 -211.11c0,-23.11 18.9,-42 41.99,-42l3658.76 0c23.04,0 41.99,18.89 41.99,42l0 211.11c0,23.12 -18.95,42.01 -41.99,42.01z"/>
   <path class="fil9" d="M16244.62 4897.67c-1.84,10.57 -4.29,21.13 -6.74,31.14 -9.32,38.52 -19.25,76.46 -29.19,113.18 -0.61,3.09 -1.84,6.24 -2.57,9.33 -1.23,3.72 -1.84,7.48 -3.07,11.19 -11.16,41.66 -23.05,81.47 -34.83,120.65 -16.18,52.91 -32.99,103.29 -49.79,152.37 -4.91,14.33 -9.94,28.67 -14.97,42.33 -7.47,20.53 -14.83,41.05 -21.7,60.95 0,0 0,0 0,0.62 -6.87,16.18 -12.39,31.08 -18.65,46.66 -9.32,24.85 -19.25,48.52 -28.7,72.14 -14.22,34.86 -28.57,68.42 -42.19,99.51 -3.19,7.48 -6.25,14.33 -9.32,21.14 -6.26,14.34 -12.51,28 -18.15,41.05l-883.12 0 0 -822.26 1162.98 0z"/>
   <polygon class="fil9" points="10486.91,5719.63 12124.38,5719.63 12124.38,4897.55 10486.91,4897.55 "/>
   <path class="fil10" d="M10775.44 5554.4c0,-268.01 217.25,-485.31 485.31,-485.31 268.01,0 485.24,217.29 485.24,485.31 0,268.01 -217.23,485.26 -485.24,485.26 -268.06,0 -485.31,-217.24 -485.31,-485.26z"/>
   <path class="fil11" d="M11515.32 5554.4c0,56.72 -18.55,109.08 -49.92,151.35 -46.33,62.69 -120.77,103.22 -204.65,103.22 -140.61,0 -254.63,-113.95 -254.63,-254.57 0,-109.12 68.65,-202.22 165.13,-238.44 27.83,-10.45 58.02,-16.18 89.5,-16.18 140.61,0 254.57,113.95 254.57,254.62z"/>
   <path class="fil12" d="M16314.4 3682.98c-6.26,-44.8 -13.12,-89.55 -21.22,-134.99 -0.62,-4.31 -1.84,-9.33 -2.45,-13.71 -8.71,-47.23 -18.65,-93.9 -29.8,-141.17l-6720.54 -1246.45c-9.94,0 -20.52,0 -30.47,0.64 -1.91,0 -4.39,0.61 -6.24,0.61 -4.33,0 -8.09,0.64 -11.81,0.64l-0.61 0c-1.85,0.6 -3.77,0.6 -5.62,0.6 -2.47,0.63 -4.95,0.63 -6.8,1.25 -18.67,1.86 -37.33,5.61 -56,9.95 -2.47,0.63 -5,1.24 -7.47,1.85 -0.63,0.64 -1.24,0.64 -1.85,0.64 -3.76,1.25 -7.48,1.86 -10.57,3.1 -2.48,0.61 -5.01,1.25 -7.48,1.86 -3.72,1.25 -7.48,2.49 -11.19,3.75 -3.71,1.23 -7.47,2.49 -11.18,3.72 -1.87,0.63 -3.78,1.88 -6.25,2.48 -3.71,1.25 -8.1,3.13 -12.42,4.98 -3.1,1.25 -6.87,2.49 -9.95,4.37 -5.62,1.86 -10.58,4.35 -16.19,6.84 -3.09,1.85 -6.19,3.1 -9.96,4.96 -1.85,1.24 -4.32,1.87 -6.17,3.12 -4.38,2.49 -8.1,4.35 -11.86,6.22 -3.71,2.49 -7.42,4.34 -11.2,6.83 -3.7,1.88 -6.8,3.74 -10.56,6.24 -0.63,0.62 -1.23,0.62 -1.86,1.23 -3.7,1.85 -6.86,4.35 -9.94,6.21 -3.1,2.49 -6.2,4.35 -9.34,6.86 -3.1,1.86 -6.24,3.73 -9.34,6.22 -1.85,1.25 -3.71,3.1 -6.24,4.35 -8.04,6.22 -16.14,13.07 -23.62,19.9 -1.85,1.25 -3.7,2.5 -4.95,3.75 -2.53,2.48 -5,4.35 -6.85,6.21 -2.48,2.49 -5.01,4.36 -7.48,6.86l-13.67 13.67c-2.46,2.49 -5.01,4.99 -6.85,7.47 -3.1,2.47 -5.57,5.6 -8.1,8.08 -1.23,1.87 -3.09,3.75 -4.96,5.59 -3.15,4.36 -6.24,8.09 -9.33,11.83 -1.85,1.87 -3.1,3.72 -5.01,5.61 -1.23,2.48 -3.1,4.35 -4.33,6.21 -3.09,4.36 -6.24,8.09 -9.34,12.44 -1.23,1.88 -2.46,3.74 -3.7,6.22 -1.91,1.87 -3.15,3.75 -4.39,6.23 -2.46,3.1 -4.94,6.82 -7.48,10.56 0,0.63 0,0.63 -0.61,0.63 -0.62,1.88 -1.85,3.11 -2.48,4.96 -1.85,2.49 -3.1,4.98 -4.95,7.47 -1.23,2.49 -2.52,3.74 -3.15,6.22 -0.62,0 -0.62,0.6 -0.62,0.6 -0.63,1.89 -1.86,3.75 -3.1,5.61 -1.85,3.12 -3.76,6.86 -5.61,9.94 -1.85,4.37 -4.33,8.72 -6.18,13.07 -1.86,3.73 -3.76,7.46 -5.01,11.2 -1.23,1.86 -1.85,3.74 -3.1,5.59 -0.61,2.48 -1.23,4.35 -2.46,6.22 -1.91,4.37 -3.15,8.09 -5.01,12.46 -1.23,3.71 -3.09,7.45 -4.33,11.8 -0.61,1.85 -1.85,4.35 -2.53,6.83 -0.63,1.87 -1.23,3.74 -1.86,5.61 -0.62,1.25 -0.62,2.49 -1.24,3.71 -0.61,1.89 -1.23,4.37 -1.84,6.23 -1.24,3.11 -1.85,6.23 -3.1,9.34 -0.63,2.48 -1.28,4.96 -1.91,7.46 -0.62,2.49 -1.24,4.36 -1.85,6.85 -6.81,24.25 -13.05,49.13 -19.91,75.28 -1.24,4.35 -2.48,8.68 -3.72,13.05 -7.47,27.33 -14.94,55.33 -22.37,83.95 -1.91,5.61 -3.15,11.85 -5.01,18.04 -0.61,3.1 -1.23,5.63 -1.86,8.09 -2.47,8.73 -4.99,17.43 -6.86,26.15 -2.48,8.7 -4.94,17.99 -7.47,26.7 0,1.23 -0.63,2.47 -1.23,4.38 -0.63,4.33 -1.87,8.72 -3.1,13.05 -1.24,3.7 -1.86,6.86 -2.48,9.94 -2.54,8.1 -4.39,15.58 -6.24,23.61 -3.1,10.64 -5.57,21.21 -8.72,31.78 -1.85,8.09 -4.33,16.75 -6.18,25.47 -6.86,25.53 -13.72,51.61 -20.52,77.75 -3.15,13.04 -6.24,25.52 -9.95,38.56 -3.15,13.05 -6.86,26.15 -9.95,39.19 -3.15,13.04 -6.85,26.15 -10,39.19 -3.09,11.81 -5.56,23.62 -8.66,35.48 -8.72,34.18 -17.43,68.37 -25.52,101.99 -3.09,13.05 -6.24,25.47 -9.34,37.95 -1.23,4.33 -1.86,8.65 -3.09,12.42 -3.1,13.04 -6.24,25.46 -9.34,37.95 -0.62,2.48 -0.62,4.33 -1.23,6.81 -2.48,9.94 -5.01,19.9 -7.48,29.85 -1.24,4.39 -1.85,8.72 -3.1,12.48 -2.52,11.19 -5,21.76 -7.47,32.33 -1.24,6.86 -3.1,13.05 -4.38,19.28 -3.1,11.2 -5.56,21.76 -8.04,32.95 0,0.61 0,1.91 -0.63,2.53 -1.23,6.18 -2.53,12.42 -3.77,17.99 -0.61,1.24 -0.61,1.92 -0.61,3.15 -1.24,4.95 -2.48,9.94 -3.71,14.89 -1.24,5.62 -2.47,11.8 -3.77,17.44 -3.09,11.8 -5.56,22.99 -8.03,34.8 -0.63,2.54 -1.3,5.62 -1.91,8.72 -3.1,13.72 -6.18,28 -9.34,41.72 -0.63,4.94 -1.86,9.89 -3.09,14.88 0,1.25 -0.63,2.48 -0.63,3.72 -1.24,4.39 -1.85,9.34 -3.1,13.71 -0.63,1.87 -0.63,3.72 -1.23,5.57 -1.24,6.87 -2.53,13.72 -4.38,20.53l0 0.61c-0.63,4.39 -1.86,8.09 -2.48,12.49 -2.48,13.03 -5.01,25.47 -7.47,37.94 -13.04,64.66 -23,121.28 -28.62,166.65 -30.48,228.87 -42.29,483.29 -45.38,729.59 -0.62,105.76 0,209.61 1.85,308.49 0.63,44.81 1.85,88.33 3.1,130.67 3.76,120.63 8.7,231.97 13.71,329 3.1,56.56 6.81,107.62 9.34,153 8.66,123.79 110.71,219.59 234.44,219.59l1716.69 0c-0.62,-1.91 -0.62,-3.76 -1.24,-5.61 -14.32,-51.01 -21.13,-104.52 -21.13,-159.84 0,-232.65 131.23,-434.77 324,-536.13 81.47,-42.96 173.56,-67.19 271.23,-69.11 103.84,-1.23 202.11,23.67 287.97,69.11 190.96,100.12 322.79,298.54 325.86,527.4 0.61,58.47 -6.87,115.04 -21.1,168.57 -0.61,1.85 -1.22,3.7 -1.22,5.61l3422.72 0c-14.97,-52.9 -23.67,-108.23 -23.67,-165.46 0,-339.03 274.96,-613.27 613.32,-613.27 130.61,0 251.9,40.43 350.75,110.08 0.73,-3.09 1.96,-6.24 2.57,-9.33 9.94,-36.72 19.87,-74.67 29.19,-113.18 2.45,-10.01 4.91,-20.57 6.74,-31.14 2.58,-11.18 5.03,-22.38 7.48,-33.56l1.35 -4.4c1.84,-8.03 3.68,-16.13 5.51,-24.84 4.42,-21.14 8.71,-42.27 13.12,-64.04 14.97,-76.52 27.96,-156.12 38.51,-236.98 8.71,-62.84 15.58,-127.5 20.61,-192.83 1.84,-30.48 3.68,-60.94 5.51,-92.04 1.35,-31.08 2.58,-62.18 3.2,-93.94 3.06,-153.6 -4.42,-311.59 -25.51,-472.05z"/>
   <path class="fil13" d="M9804.53 5127.84l-299.88 0c-30.08,0 -54.71,-24.63 -54.71,-54.7 0,-30.14 24.64,-54.7 54.71,-54.7l299.88 0c30.08,0 54.71,24.56 54.71,54.7 0,30.08 -24.63,54.7 -54.71,54.7z"/>
   <path class="fil14" d="M16314.4 3682.98c0,0 -7537.89,-22.6 -7541.15,-9.34 -12.88,53.36 -22.71,99.91 -28.67,137.24 -38.35,240.74 -47.84,517.18 -44.81,768.56 0.78,65.78 2.41,129.88 4.67,191.05l4919.87 0 0 0.33 2647.77 0c14.97,-76.52 27.96,-156.12 38.51,-236.98 8.71,-62.84 15.58,-127.5 20.61,-192.83 1.84,-30.48 3.68,-60.94 5.51,-92.04 1.35,-31.08 2.58,-62.18 3.2,-93.94 3.06,-153.6 -4.42,-311.59 -25.51,-472.05z"/>
   <path class="fil13" d="M8823.85 5347.56l-128.58 0c-27.76,0 -50.54,-22.78 -50.54,-50.6l0 -358.42c0,-27.84 22.78,-50.6 50.54,-50.6l128.58 0c27.83,0 50.54,22.76 50.54,50.6l0 358.42c0,27.82 -22.71,50.6 -50.54,50.6z"/>
   <path class="fil10" d="M16314.4 3682.98c-6.26,-44.8 -13.12,-89.55 -21.22,-134.99 -0.62,-4.31 -1.84,-9.33 -2.45,-13.71 -8.71,-47.23 -18.65,-93.9 -29.8,-141.17 -6.87,-29.86 -14.97,-59.71 -23.06,-89.57 -5.03,-16.8 -9.32,-32.94 -14.35,-49.76 -0.61,-2.48 -1.84,-5.56 -2.45,-8.09 -6.26,-19.91 -12.39,-40.42 -18.64,-60.33 -6.87,-20.51 -13.74,-41.04 -21.22,-61.57 -3.67,-11.18 -7.47,-22.37 -11.77,-33.55 -2.45,-6.87 -5.02,-13.72 -7.47,-20.52 -41.7,-110.76 -91.37,-221.46 -149.87,-331.54 -8.71,-15.52 -17.42,-31.7 -26.12,-47.28 -3.07,-5.57 -6.26,-11.2 -9.33,-16.75 -3.8,-6.87 -7.47,-13.11 -11.28,-19.29 -26,-45.43 -54.09,-90.83 -83.88,-136.23 -21.83,-34.21 -45.38,-67.8 -69.66,-102.01 -11.28,-16.18 -23.06,-31.73 -34.83,-47.9 -7.47,-9.32 -14.96,-19.27 -22.44,-29.22 -19.86,-25.5 -39.74,-51.63 -60.95,-77.13 -23.06,-27.36 -45.99,-55.35 -70.27,-82.71 -9.94,-11.21 -19.87,-22.41 -29.8,-33l-4055.33 0 -0.39 -0.27 -1997.57 0c-10.07,0 -20.19,0.29 -30.2,0.92 -2.19,0.15 -4.44,0.35 -6.63,0.48 -3.76,0.28 -7.59,0.58 -11.4,0.95l-1.02 0.1c-1.8,0.2 -3.6,0.34 -5.4,0.58l-0.22 0c-2.19,0.25 -4.45,0.53 -6.7,0.83 -18.84,2.3 -37.39,5.77 -55.6,10.19 -2.59,0.63 -5.22,1.3 -7.81,1.98 -0.68,0.14 -1.3,0.33 -1.98,0.53 -3.49,0.92 -7.02,1.93 -10.51,2.93 -2.42,0.68 -4.83,1.4 -7.2,2.13 -3.7,1.15 -7.53,2.35 -11.3,3.6 -3.71,1.25 -7.47,2.55 -11.18,3.9 -2.04,0.67 -4.06,1.4 -6.02,2.21 -4.1,1.54 -8.27,3.13 -12.37,4.81 -3.49,1.4 -6.97,2.84 -10.4,4.33 -5.33,2.31 -10.62,4.72 -15.84,7.22 -3.39,1.54 -6.7,3.17 -9.96,4.81 -2.19,1.12 -4.38,2.2 -6.57,3.37 -3.89,2.01 -7.76,4.09 -11.59,6.24 -3.81,2.13 -7.64,4.3 -11.4,6.51l-0.07 0.03c-3.37,2.03 -6.8,4.1 -10.23,6.22 -0.78,0.47 -1.52,0.96 -2.25,1.43 -3.26,2.03 -6.52,4.14 -9.78,6.31 -3.1,2.07 -6.24,4.18 -9.33,6.35 -3.05,2.16 -6.09,4.32 -9.12,6.54 -2.02,1.49 -4,2.98 -6.01,4.47 -8.27,6.25 -16.36,12.73 -24.24,19.51 -1.58,1.35 -3.21,2.74 -4.78,4.2 -2.37,2.07 -4.72,4.18 -7.02,6.29 -2.37,2.12 -4.67,4.23 -6.92,6.44 -4.72,4.52 -9.44,9.14 -14.06,13.86 -2.35,2.45 -4.67,4.96 -7.02,7.46 -2.59,2.73 -5.07,5.46 -7.53,8.27 -1.69,1.87 -3.32,3.75 -4.96,5.67 -3.37,3.8 -6.57,7.65 -9.66,11.54 -1.59,1.93 -3.15,3.89 -4.72,5.86 -1.59,1.98 -3.1,4 -4.61,5.97 -3.04,4.04 -6.07,8.12 -9.05,12.26 -1.41,2.01 -2.87,4.04 -4.28,6.11 -1.41,2.05 -2.81,4.1 -4.22,6.19 -44.86,1.59 -96.42,6.41 -149.43,17.45 -197.67,41.19 -322.6,150.28 -362.58,316.02l-24.06 -2.29c-32.05,-3.05 -61.23,18.76 -67.36,50.37l-105.75 546.26c-7.02,36.26 18.73,70.66 55.44,74.21l152.47 14.51c34.41,3.32 64.94,-21.93 68.2,-56.28l52.63 -551.37c3.15,-33.06 -20.07,-62.52 -52.47,-67.63 34.48,-149.39 120.78,-261.47 300.91,-299.29 39.74,-8.35 78.27,-11.45 113.23,-11.58l-0.11 0.18c-1.13,1.88 -2.2,3.8 -3.15,5.72 -1.92,3.38 -3.7,6.78 -5.51,10.19 -2.19,4.23 -4.38,8.48 -6.47,12.74 -1.74,3.65 -3.48,7.36 -5.17,11.06 -0.9,2.03 -1.8,4.05 -2.7,6.07 -0.89,2.04 -1.8,4.08 -2.64,6.14 -1.75,4.1 -3.43,8.23 -5.06,12.36 -1.46,3.85 -2.93,7.69 -4.39,11.59 -0.78,2.36 -1.69,4.72 -2.42,7.07 -0.68,1.88 -1.28,3.75 -1.91,5.68 -0.39,1.15 -0.78,2.25 -1.18,3.4 -0.68,2.13 -1.35,4.3 -2.03,6.41 -0.95,3.08 -1.85,6.11 -2.76,9.24 -0.72,2.59 -1.46,5.25 -2.18,7.88 -0.52,2.17 -1.19,4.33 -1.75,6.53 -6.57,24.34 -13.32,49.44 -20.24,75.26 -1.13,4.26 -2.3,8.59 -3.44,12.92 -7.36,27.27 -14.83,55.27 -22.42,83.83 -1.64,6.18 -3.26,12.36 -4.95,18.6 -0.45,1.64 -0.89,3.26 -1.34,4.96 -1.18,4.6 -2.42,9.21 -3.65,13.82 -1.35,5.06 -2.7,10.18 -4,15.29 -2.29,8.78 -4.66,17.66 -7.02,26.54 -0.33,1.35 -0.73,2.76 -1.12,4.1 -1.36,5.29 -2.76,10.51 -4.1,15.73 -0.68,2.59 -1.35,5.07 -1.96,7.59 -2.09,7.83 -4.11,15.58 -6.2,23.45l-0.05 0.34c-2.75,10.45 -5.56,21.02 -8.33,31.59l2197.9 0 0 830.34 5144.46 0z"/>
   <path class="fil15" d="M16314.4 3682.98c-6.26,-44.8 -13.12,-89.55 -21.22,-134.99 -0.62,-4.31 -1.84,-9.33 -2.45,-13.71 -8.71,-47.23 -18.65,-93.9 -29.8,-141.17 -6.87,-29.86 -14.97,-59.71 -23.06,-89.57 -5.03,-16.8 -9.32,-32.94 -14.35,-49.76 -0.61,-2.48 -1.84,-5.56 -2.45,-8.09 -6.26,-19.91 -12.39,-40.42 -18.64,-60.33 -6.87,-20.51 -13.74,-41.04 -21.22,-61.57 -3.67,-11.18 -7.47,-22.37 -11.77,-33.55 -2.45,-6.87 -5.02,-13.72 -7.47,-20.52 -41.7,-110.76 -91.37,-221.46 -149.87,-331.54 -8.71,-15.52 -17.42,-31.7 -26.12,-47.28 -3.07,-5.57 -6.26,-11.2 -9.33,-16.75 -3.8,-6.87 -7.47,-13.11 -11.28,-19.29 -26,-45.43 -54.09,-90.83 -83.88,-136.23l-6820.66 0c-6.81,24.25 -13.05,49.13 -19.91,75.28 -1.24,4.35 -2.48,8.68 -3.72,13.05 -7.47,27.33 -14.94,55.33 -22.37,83.95 -1.91,5.61 -3.15,11.85 -5.01,18.04 -0.61,3.1 -1.23,5.63 -1.86,8.09 -2.47,8.73 -4.99,17.43 -6.86,26.15 -2.48,8.7 -4.94,17.99 -7.47,26.7 0,1.23 -0.63,2.47 -1.23,4.38 -0.63,4.33 -1.87,8.72 -3.1,13.05 -1.24,3.7 -1.86,6.86 -2.48,9.94 -2.54,8.1 -4.39,15.58 -6.24,23.61 -3.1,10.64 -5.57,21.21 -8.72,31.78 -1.85,8.09 -4.33,16.75 -6.18,25.47 -6.86,25.53 -13.72,51.61 -20.52,77.75 -3.15,13.04 -6.24,25.52 -9.95,38.56 -3.15,13.05 -6.86,26.15 -9.95,39.19 -3.15,13.04 -6.85,26.15 -10,39.19 -3.09,11.81 -5.56,23.62 -8.66,35.48 -8.72,34.18 -17.43,68.37 -25.52,101.99 -3.09,13.05 -6.24,25.47 -9.34,37.95 -1.23,4.33 -1.86,8.65 -3.09,12.42 -3.1,13.04 -6.24,25.46 -9.34,37.95 -0.62,2.48 -0.62,4.33 -1.23,6.81 -2.48,9.94 -5.01,19.9 -7.48,29.85 -1.24,4.39 -1.85,8.72 -3.1,12.48 -2.52,11.19 -5,21.76 -7.47,32.33 -1.24,6.86 -3.1,13.05 -4.38,19.28 -3.1,11.2 -5.56,21.76 -8.04,32.95 0,0.61 0,1.91 -0.63,2.53 -1.23,6.18 -2.53,12.42 -3.77,17.99 -0.61,1.24 -0.61,1.92 -0.61,3.15 -1.24,4.95 -2.48,9.94 -3.71,14.89 -1.24,5.62 -2.47,11.8 -3.77,17.44 -3.09,11.8 -5.56,22.99 -8.03,34.8 -0.63,2.54 -1.3,5.62 -1.91,8.72 -3.1,13.72 -6.18,28 -9.34,41.72 -0.63,4.94 -1.86,9.89 -3.09,14.88 0,1.25 -0.63,2.48 -0.63,3.72 -1.24,4.39 -1.85,9.34 -3.1,13.71 -0.63,1.87 -0.63,3.72 -1.23,5.57 -1.24,6.87 -2.53,13.72 -4.38,20.53l0 0.61c-0.63,4.39 -1.86,8.09 -2.48,12.49 -2.48,13.03 -5.01,25.47 -7.47,37.94l182.89 0.63 69.04 0 376.92 0.61 465.84 0.63 83.33 0 2742.35 4.95c-0.73,-2.48 -1.35,-4.95 -2.58,-6.81l3623.12 0z"/>
   <path class="fil15" d="M10006.88 2795.29c3.26,-53.36 -39.07,-98.44 -92.53,-98.44l-423.59 0c-272.62,0 -460.4,216.01 -493.69,493.68l-98.33 1206.19c-3.37,41.33 29.24,76.69 70.68,76.69l868.23 0c36.66,0 66.9,-28.45 69.22,-64.99l100.01 -1613.13z"/>
   <path class="fil11" d="M9924.01 2871.98l-72.41 1061.02 -25.35 371.25c0,47.79 -38.74,86.52 -86.47,86.52l-676.59 0c-118.79,0 -83.48,-176.26 -73.87,-287.47l74.77 -872.06c0,-16.81 0.84,-33.45 2.59,-49.86 23.04,-222.92 199.08,-396.31 412.84,-396.31l253.62 0c51.44,0 190.87,0 190.87,86.91z"/>
   <path class="fil16" d="M11515.32 5554.4c0,56.72 -18.55,109.08 -49.92,151.35 -282.68,-77.93 -301.35,-292.02 -294.15,-389.79 27.83,-10.45 58.02,-16.18 89.5,-16.18 140.61,0 254.57,113.95 254.57,254.62z"/>
   <path class="fil10" d="M16168.21 5183.16c-16.18,52.91 -32.99,103.29 -49.79,152.37 -4.91,14.33 -9.94,28.67 -14.97,42.33 -7.47,20.53 -14.83,41.05 -21.7,60.95 0,0 0,0 0,0.62 -6.87,16.18 -12.39,31.08 -18.65,46.66 -9.32,24.85 -19.25,48.52 -28.7,72.14 -14.22,34.86 -28.57,68.42 -42.19,99.51 -3.19,7.48 -6.25,14.33 -9.32,21.14 -6.26,14.34 -12.51,28 -18.15,41.05 -12.39,27.37 -24.78,53.53 -36.67,77.75 -11.77,24.29 -22.93,47.28 -33.6,68.43 -39.74,78.36 -73.34,143.08 -88.3,171.07 -188.49,-18.66 -344.62,-145.55 -407.4,-317.25 -18.65,-51.62 -28.58,-107.55 -28.58,-165.41 0,-268.06 217.07,-485.15 485.16,-485.15 118.83,0 228.23,42.9 312.85,113.79z"/>
   <path class="fil11" d="M16081.76 5438.81c0,0 0,0 0,0.62 -6.87,16.18 -12.39,31.08 -18.65,46.66 -9.32,24.85 -19.25,48.52 -28.7,72.14 -14.22,34.86 -28.57,68.42 -42.19,99.51 -3.19,7.48 -6.25,14.33 -9.32,21.14 -6.26,14.34 -12.51,28 -18.15,41.05 -12.39,27.37 -24.78,53.53 -36.67,77.75 -22.93,7.47 -47.22,11.19 -72.72,11.19 -77.14,0 -146.19,-34.2 -192.79,-88.94 -38.63,-44.13 -61.69,-102 -61.69,-165.41 0,-109.47 68.43,-202.17 164.95,-238.83 27.96,-9.95 57.76,-16.2 89.52,-16.2 98.84,0 184.69,56.62 226.39,139.33z"/>
   <path class="fil16" d="M16081.76 5438.81c0,0 0,0 0,0.62 -6.87,16.18 -12.39,31.08 -18.65,46.66 -9.32,24.85 -19.25,48.52 -28.7,72.14 -14.22,34.86 -28.57,68.42 -42.19,99.51 -3.19,7.48 -6.25,14.33 -9.32,21.14 -208.97,-92.65 -223.32,-274.93 -217.07,-363.2 27.96,-9.95 57.76,-16.2 89.52,-16.2 98.84,0 184.69,56.62 226.39,139.33z"/>
   <path class="fil17" d="M9851.59 3933l-25.35 371.25c0,47.79 -38.74,86.52 -86.47,86.52l-676.59 0c-118.79,0 -83.48,-176.26 -73.87,-287.47l74.77 -872.06c0,-16.81 0.84,-33.45 2.59,-49.86 117.89,274.76 354.09,651.38 784.91,751.63z"/>
   <path class="fil11" d="M12266.34 3534.06l-1261.51 0c-53.19,0 -96.7,-43.52 -96.7,-96.71l0 -666.29c0,-53.18 43.51,-96.7 96.7,-96.7l1261.51 0c53.23,0 96.76,43.52 96.76,96.7l0 666.29c0,53.18 -43.53,96.71 -96.76,96.71z"/>
   <path class="fil11" d="M10680.2 3534.06l-565.2 0c-36.89,0 -67.07,-30.19 -67.07,-67.08l0 -725.54c0,-36.88 30.18,-67.07 67.07,-67.07l565.2 0c36.88,0 67.02,30.19 67.02,67.07l0 725.54c0,36.89 -30.13,67.08 -67.02,67.08z"/>
   <path class="fil11" d="M13899.4 3534.06l-1261.59 0c-53.23,0 -96.77,-43.52 -96.77,-96.71l0 -666.29c0,-53.18 43.54,-96.7 96.77,-96.7l1261.59 0c53.1,0 96.64,43.52 96.64,96.7l0 666.29c0,53.18 -43.54,96.71 -96.64,96.71z"/>
   <path class="fil11" d="M15510.26 3534.06l-1261.59 0c-53.23,0 -96.64,-43.52 -96.64,-96.71l0 -666.29c0,-53.18 43.41,-96.7 96.64,-96.7l1261.59 0c53.23,0 96.64,43.52 96.64,96.7l0 666.29c0,53.18 -43.41,96.71 -96.64,96.71z"/>
   <path class="fil11" d="M16260.93 3393.11c11.15,47.28 21.09,93.95 29.8,141.17l-429.11 0c-53.59,0 -97.13,-43.52 -97.13,-96.98l0 -666.19c0,-53.45 43.54,-96.97 97.13,-96.97l115.03 0c3.07,5.56 6.26,11.18 9.33,16.75 8.7,15.58 17.41,31.76 26.12,47.28 58.5,110.08 108.16,220.79 149.87,331.54 2.45,6.8 5.02,13.66 7.47,20.52 4.3,11.19 8.1,22.37 11.77,33.55 7.48,20.53 14.35,41.05 21.22,61.57 6.25,19.91 12.38,40.42 18.64,60.33 0.61,2.54 1.84,5.61 2.45,8.09 5.03,16.82 9.32,32.95 14.35,49.76 8.09,29.87 16.18,59.72 23.06,89.57z"/>
   <path class="fil10" d="M5616.98 3267.11c-23.5,-35.7 -116.87,-15.74 -208.57,44.64 -91.71,60.38 -146.97,138.3 -123.41,174 23.5,35.76 116.89,15.74 208.59,-44.64 91.69,-60.38 146.97,-138.3 123.4,-174z"/>
   <path class="fil10" d="M5137.97 4594.35l18.11 1.13c-0.17,-0.39 7.08,-316.14 34.75,-443.88 51.61,-238.04 186.5,-424.36 187.96,-425.94l-32.39 -10.39c-1.63,1.74 -27.21,41.38 -63.41,114.47 -33.35,67.36 -87.04,179.57 -110.76,310.23 -23.38,129.04 -34.91,452.71 -34.25,454.39z"/>
   <path class="fil18" d="M5465.13 3264.29c0,0 -118.28,-25.24 -175.08,71.02 -56.78,96.18 -59.98,263.45 -97.82,318.16 -37.84,54.64 -104.63,285.49 -33.68,337.16 71,51.67 508.37,-1.91 532.93,-25.47 24.51,-23.55 -1.53,-265.93 -44.25,-336.14 -42.73,-70.24 61.39,-400.48 -182.11,-364.73z"/>
   <path class="fil19" d="M5666.4 4432.03c-83.43,-266.6 10.64,-424.76 1.59,-558.11 -6.76,-99.9 12.6,-102.44 -4.78,-129.88 -17.66,-27.89 -114.92,-45.25 -123.85,-46.1 -6.92,-3.65 -8.55,-34.74 -8.5,-65.39 0.11,-36.71 2.93,-75.67 2.93,-75.67l-123.91 -24.58 -7.37 -1.46c0.34,86.2 -22.32,142.75 -38.79,156.02 -15.34,1.57 -81.47,8.98 -122.17,24.28 -15.36,5.74 -27.05,12.6 -31.09,20.65 -34.02,67.12 -67.98,236.47 -91.87,357.29 -13.31,67.34 -23.43,119.63 -28.73,130.71 -14.78,30.87 -59.93,200.88 -98.44,284.82l42.51 1.64c0,0 169.12,-230.18 183.91,-293.09 4.66,-19.91 15.97,-59.2 29.22,-103.51 29.3,80.45 44.36,114.29 43.63,145.62 -0.96,40.59 -28.52,77.08 -85.97,206.05 -31.81,71.29 546.88,242.99 461.7,-29.3z"/>
   <path class="fil19" d="M5349.88 5699.07c8.15,32.38 17.14,63.3 26.32,92.03 1.96,6.13 3.87,12.21 5.83,18.1 0.96,2.98 1.98,5.91 2.94,8.77 1.91,5.69 3.82,11.25 5.67,16.7 2.47,7.13 4.95,14.06 7.42,20.75 1.74,5.01 3.54,9.9 5.33,14.62 27.16,72.86 49.88,118.97 49.88,118.97l54.08 -3.7c0,0 -20.29,-96.59 -24.34,-235.01 -0.17,-4.96 -0.28,-9.9 -0.39,-14.97 -0.17,-10.73 -0.34,-21.63 -0.34,-32.83 0,-4.56 0.07,-9.22 0.07,-13.88 1.13,-119.19 15.85,-260.03 62.97,-394.52 38.28,-109.34 66.01,-211.67 86.07,-304.11 64.82,-298.42 49.6,-494.53 49.6,-494.53l-304.34 35.65 -14.17 1.64c-1.3,139.76 -4.9,329.57 -8.05,477.93 -0.55,25.75 -1.07,50.27 -1.57,73.05 -2.09,95.29 -3.65,160.4 -3.65,160.4 -58.52,125.99 -37.27,303.83 0.68,454.96z"/>
   <path class="fil20" d="M5533.78 3556.88c0,0 -2.82,38.96 -2.93,75.67 -69.31,-1.96 -105.97,-65.16 -120.98,-100.24l123.91 24.58z"/>
   <path class="fil19" d="M5722.8 4316.16c0,0 -14.45,201.17 -9.61,225.17 4.77,24.01 -1.58,109.69 -34.47,125.5 -32.89,15.73 -97.82,-398.45 44.08,-350.67z"/>
   <path class="fil19" d="M5556.89 3591.63c0,0 -164.01,2.69 -164.12,-99.46 -0.11,-102.16 -21.37,-170.63 83.38,-176.65 104.68,-6.07 125.09,32.89 133.41,67.02 8.33,34.08 -10.01,205.77 -52.68,209.1z"/>
   <path class="fil18" d="M5550.87 3312.99c0,0 -44.91,119.87 -113.84,137.57 -68.93,17.76 -98.85,-0.73 -98.85,-0.73 0,0 52.93,-42.01 63.89,-115.3 0,0 114.91,-78.55 148.81,-21.53z"/>
   <path class="fil18" d="M5539.75 3322.71c0,0 33.5,26.76 41.7,52.78 8.16,26.04 11.81,79.57 27.44,77.77 0,0 33.85,-81.47 -4.2,-127.58 -40.33,-48.85 -64.94,-2.98 -64.94,-2.98z"/>
   <path class="fil21" d="M5665.56 3747.3c0,0 124.54,530.62 86.08,575.66 -38.45,45.04 -137.06,52.23 -151.46,42.61 -14.45,-9.61 65.38,-618.27 65.38,-618.27z"/>
   <path class="fil18" d="M5545.93 3326.76c0,0 -32,125.55 -118.92,165.75 0,0 86.91,-77.14 94.34,-159.96 7.37,-82.87 24.58,-5.79 24.58,-5.79z"/>
   <path class="fil19" d="M5175.31 5672.85c17.54,186.72 94.57,307.48 94.57,307.48l26.3 23.95c0,0 23.95,-136.73 41.27,-293.25 16.47,-148.82 39.07,-306.25 64.66,-354.32 38.23,-71.8 66.39,-218.64 86.63,-373.77 33.52,-256.76 45.43,-536.24 45.43,-536.24l-308.6 -15.29c-31.03,52.11 -44.53,137.74 -47.74,234.99 -3.37,102.33 4.66,217.59 15.86,320.58 15.58,144.21 37.33,264.42 42.34,291.4l0.04 0.18c0.69,3.55 -0.39,7.08 -2.02,10.29 -61.39,121.55 -70.27,260.6 -58.75,383.99z"/>
   <path class="fil22" d="M5639.08 5633.89c-265.75,99.85 -665.62,-15.79 -665.62,-15.79 0,0 14.74,-82.59 36.33,-202.63 54.36,-301.24 152.19,-838.1 169.4,-895.05 24.06,-79.51 111.49,-265.15 111.49,-265.15 40.93,13.66 83.37,20.8 123.8,23.84 116.76,8.77 216.96,-16.32 216.96,-16.32 0,0 16.25,54.54 51.11,168.55 34.81,114.09 -43.47,1202.54 -43.47,1202.54z"/>
   <path class="fil13" d="M5681.14 3951.95c-13.27,131.23 -49.7,309.23 -49.7,309.23 -20.12,10.63 -40.6,18.45 -61.06,23.95 -141.06,38.35 -279.65,-31.42 -279.65,-31.42 0,0 -0.23,-4.06 -0.62,-8.95 -0.28,-4.1 -0.67,-8.66 -1.13,-12.04 -1.07,-7.42 -34.51,-87.02 -34.51,-87.02 0,0 -1.3,6.18 -3.5,16.75 -12.25,58.19 -54.24,249.57 -79.99,266.83 -14.91,9.95 -62.64,10.06 -107.44,-2.14 -46.67,-12.65 -90.07,-38.79 -90.07,-81.19 0,-54.36 98.78,-300.05 169.95,-468.38l0.07 -0.23c37.89,-89.79 59.93,-152.19 88.93,-159.17 0,0 194.98,79.34 303,67.19 37.1,-4.22 105.18,-35.54 126.05,-43.35 0.61,0.61 1.23,1.28 1.74,1.97 0.45,0.5 0.84,1.01 1.23,1.57 0.44,0.57 0.78,1.18 1.12,1.74 15.86,23.28 13.33,61.96 14.17,76.75 1.57,28.84 7.36,69.14 1.4,127.89z"/>
   <path class="fil21" d="M5254.41 4146.98c0,0 33.5,79.91 34.57,87.32 0.46,3.37 0.85,7.98 1.19,12.03 16.13,13.21 35.7,23.22 55.65,29.28 56.62,17.16 81.25,-91.41 77.87,-145.55 -3.37,-54.19 -83.49,-208.81 -110.14,-212.01 -26.65,-3.15 -59.15,228.93 -59.15,228.93z"/>
   <path class="fil3" d="M5250.98 4163.73c2.2,-10.55 3.44,-16.75 3.44,-16.75 -1.74,5.68 -2.87,11.31 -3.44,16.75z"/>
   <path class="fil23" d="M5484.82 4297.37c103.38,0 144.37,-29 147.52,-31.42l6.69 -48.69c-0.96,0.73 -139.71,84.04 -354.38,4.27l4.56 36.87c82.53,30.71 141.91,38.96 195.6,38.96z"/>
   <path class="fil21" d="M4973.46 4347.82c0,42.56 43.41,68.76 90.08,81.46 -64.26,-76.52 76.29,-539.39 79.88,-551.2 -71.16,168.84 -169.96,415.25 -169.96,469.75z"/>
   <path class="fil10" d="M5422.12 6034.37l34.58 0c11.52,-1.8 20.06,-5.17 31.93,-6.7 18.05,-2.35 26.31,5.01 27.95,6.7l0.33 0.33 146.69 0c3.71,-5.23 0.17,-17.48 -3.31,-26.42 -2.37,-6.13 -7.43,-10.75 -13.72,-12.6 -15.58,-4.5 -46.23,-8.48 -74.33,-33.9 -15.79,-14.27 -76.28,-52.5 -76.28,-52.5l-0.34 -0.07c-1.3,0 -7.65,1.98 -35.13,25.19 -14.23,11.96 -38.46,-16.93 -38.46,-16.93 0,0 -4.56,3.76 -7.99,10.8 -2.69,5.51 -4.71,13.1 -3.15,22.49 2.19,13.21 -4.83,37.77 -10.51,54.41 -3.37,10.07 -6.29,17.21 -6.29,17.21 0,0 -1.64,8.27 28.05,11.98z"/>
   <path class="fil11" d="M5414.02 5928.28c8.27,5.78 25.64,17.2 37.22,18.72 15.58,2.08 44.7,-37.72 44.7,-37.72l-0.34 -0.07c-1.3,0 -7.65,1.98 -35.13,25.19 -14.23,11.96 -38.46,-16.93 -38.46,-16.93 0,0 -4.56,3.76 -7.99,10.8z"/>
   <path class="fil11" d="M5422.12 6034.37l34.58 0c11.52,-1.8 20.06,-5.17 31.93,-6.7 18.05,-2.35 26.31,5.01 27.95,6.7l0.33 0.33 146.69 0c3.71,-5.23 0.17,-17.48 -3.31,-26.42 -4.45,-4 -5.74,17.21 -8.16,20.58 -2.48,3.37 -119.69,1.23 -126.44,-3.72 -6.74,-4.94 -27.11,-13.55 -55.38,-6.74 -24.63,5.85 -60.96,-9.23 -69.94,-13.22 -3.37,10.07 -6.29,17.21 -6.29,17.21 0,0 -1.64,8.27 28.05,11.98z"/>
   <path class="fil10" d="M5237.89 6034.37l34.52 0c11.57,-1.8 20.12,-5.17 31.98,-6.7 18.01,-2.35 26.32,5.01 27.96,6.7l0.33 0.33 146.69 0c3.65,-5.23 0.12,-17.48 -3.31,-26.42 -2.36,-6.13 -7.47,-10.75 -13.78,-12.6 -15.51,-4.5 -46.21,-8.48 -74.26,-33.9 -15.81,-14.27 -76.29,-52.5 -76.29,-52.5l-0.34 -0.07c-1.35,0 -7.65,1.98 -35.14,25.19 -14.28,11.96 -38.52,-16.93 -38.52,-16.93 0,0 -4.55,3.76 -7.93,10.8 -2.75,5.51 -4.72,13.1 -3.15,22.49 2.2,13.21 -4.89,37.77 -10.5,54.41 -3.44,10.07 -6.31,17.21 -6.31,17.21 0,0 -1.62,8.27 28.06,11.98z"/>
   <path class="fil11" d="M5229.79 5928.28c8.27,5.78 25.64,17.2 37.17,18.72 15.58,2.08 44.76,-37.72 44.76,-37.72l-0.34 -0.07c-1.35,0 -7.65,1.98 -35.14,25.19 -14.28,11.96 -38.52,-16.93 -38.52,-16.93 0,0 -4.55,3.76 -7.93,10.8z"/>
   <path class="fil11" d="M5237.89 6034.37l34.52 0c11.57,-1.8 20.12,-5.17 31.98,-6.7 18.01,-2.35 26.32,5.01 27.96,6.7l0.33 0.33 146.69 0c3.65,-5.23 0.12,-17.48 -3.31,-26.42 -4.5,-4 -5.73,17.21 -8.21,20.58 -2.48,3.37 -119.64,1.23 -126.38,-3.72 -6.81,-4.94 -27.11,-13.55 -55.39,-6.74 -24.69,5.85 -60.95,-9.23 -69.94,-13.22 -3.44,10.07 -6.31,17.21 -6.31,17.21 0,0 -1.62,8.27 28.06,11.98z"/>
   <path class="fil23" d="M5009.79 5415.48c54.36,-301.24 152.19,-838.1 169.4,-895.05 24.06,-79.51 111.49,-265.15 111.49,-265.15 40.93,13.66 83.37,20.8 123.8,23.84 4.66,64.92 38.85,714.23 -404.69,1136.36z"/>
   <path class="fil10" d="M5423.98 4595.81l-18.05 -1.35c0.23,-0.39 35.36,-316.92 25.02,-448.31 -19.23,-244.86 -127.91,-449.27 -129.15,-451.08l33.52 -5.96c1.35,1.91 21.37,44.98 47.44,122.9 24.07,71.85 62.24,191.22 68.2,325.03 5.9,132.12 -26.08,457.2 -26.99,458.77z"/>
   <path class="fil24" d="M5204.88 4526.32c0,0 17.54,-43.23 45.48,-54.04l142.63 26.88c0,0 -35.19,33.5 -38.5,55.39l-149.61 -28.23z"/>
   <path class="fil10" d="M5383.95 4770.38l-243.79 -45.94c-11.46,-2.14 -19,-13.21 -16.86,-24.61l30.48 -161.64c2.14,-11.48 13.21,-19.01 24.63,-16.82l243.78 45.93c11.47,2.13 19,13.21 16.87,24.62l-30.48 161.64c-2.13,11.47 -13.21,19.01 -24.62,16.82z"/>
   <polygon class="fil3" points="5294.9,4587.04 5178.29,4586.03 5179.64,4436.59 5296.18,4437.6 "/>
   <polygon class="fil25" points="5288.2,4586.98 5171.65,4585.97 5172.95,4436.54 5289.5,4437.54 "/>
   <polygon class="fil26" points="5269.6,4645.51 5177.05,4574.67 5267.85,4455.98 5360.45,4526.82 "/>
   <polygon class="fil27" points="5259.24,4637.58 5166.66,4566.74 5257.51,4448.07 5350.09,4518.96 "/>
   <path class="fil28" d="M5324.36 4759.2l-233.38 -44.02c-14.33,-2.7 -23.72,-16.47 -21.02,-30.81l28.51 -151.23c2.69,-14.34 16.47,-23.73 30.8,-21.03l233.38 43.97c14.34,2.69 23.72,16.53 21.02,30.8l-28.51 151.24c-2.69,14.35 -16.47,23.79 -30.8,21.09z"/>
   <path class="fil10" d="M5269.2 3397.1c0,0 -74.61,-148.54 29.64,-207.24 104.27,-58.69 180.63,-35.65 237.98,36.16l-267.62 171.08z"/>
   <path class="fil28" d="M5689.29 3209.7c-21.47,-34.41 -96.59,-28.85 -187.16,8.27 -35.48,14.45 -73.2,33.79 -111.03,57.41 -47.12,29.4 -88.17,61.5 -120.33,92.99 -60.04,58.69 -89.28,114.86 -69.88,146.01 5.96,9.49 14.89,15.68 28.26,19.23 13.27,-28.62 51.4,-55.44 62.19,-77.7 15.29,-31.54 53.86,-88.66 124.52,-132.75 54.26,-33.84 108.24,-53.73 145.4,-56.15 21.58,-1.35 37.55,3.14 44.52,14.38 5.46,8.77 4.9,20.64 -0.72,34.35 5.27,8.89 11.3,21.42 16.24,38.13 58.75,-58.03 87.2,-113.35 67.97,-144.16z"/>
   <path class="fil19" d="M4991.4 4504.61c0,0 -40.44,41.33 -46.86,46.16 -6.42,4.78 -13.85,47.51 -8.02,52.06 11.62,9.07 20.1,-11.85 38.47,-22.26 18.37,-10.46 28.83,-25.02 28.83,-20.23 0,4.83 -23.27,23.26 -20.42,27.26 2.89,4 34.48,-18.05 41.68,-22.83 7.2,-4.83 8.83,-58.52 8.83,-58.52l-42.51 -1.64z"/>
   <path class="fil10" d="M4617.85 3496.27l9.75 -0.73 11.88 -38.29c45.73,-113.33 4.84,-154.66 -23.52,-173.78 -35.63,-24.06 -73.53,-27.77 -73.53,-27.77 -21.11,-3.04 -39.23,-2.14 -54.81,1.57l-0.18 0c-170.69,-35.19 -187.01,279.48 -161.63,298.66 25.4,19.17 86.9,16.98 86.9,16.98 -3.39,-3.31 -7.06,-10.73 -7.06,-10.73 18.62,15.23 73.63,9.84 73.63,9.84 -21.45,-22.95 -28.27,-44.87 -27.79,-64.05l44.56 -3.14c11.3,28.95 28.82,57.35 44.83,69.43 29.43,22.27 88.4,16.64 88.4,16.64 -2.74,-2.92 -4.86,-12.25 -4.86,-12.25 2.12,5.96 12.84,10 12.84,10 7.33,0 22.53,-7.47 22.53,-7.47 0,0 -34.68,-0.12 -41.93,-84.89z"/>
   <path class="fil19" d="M4689.68 4307.23c133.88,-34.07 281.05,-241.76 281.05,-241.76l-37.7 -32.72c-39.02,46.05 -201.31,125.26 -201.31,125.26 0.87,-42.11 -0.22,-80.51 -2.88,-115.48 -18.02,-237.6 -107.58,-316.76 -132.02,-334.13 -3.95,-2.82 -6.22,-4 -6.22,-4 0,0 -0.08,1.74 -0.22,5.01 -0.36,7.08 -1.01,21.32 -1.68,40.83 -4.96,145.39 -10.9,585.48 100.98,556.99z"/>
   <path class="fil19" d="M4933.02 4032.75c0.57,-5.63 4.35,-87.26 20.56,-102.77 16.23,-15.53 48.22,-36.72 57.45,-34.97 9.18,1.69 40.42,53.64 25.7,89.45 -14.79,35.81 -66,81.02 -66,81.02l-37.7 -32.72z"/>
   <path class="fil29" d="M4899.77 4042.24l88.15 3.66c2.92,0.17 5.4,-2.14 5.51,-5.06l7.09 -168.1c0.11,-2.94 -2.19,-5.4 -5.11,-5.52l-88.16 -3.7c-2.93,-0.11 -5.4,2.14 -5.52,5.06l-7.02 168.15c-0.12,2.93 2.15,5.4 5.08,5.51z"/>
   <path class="fil30" d="M4922.66 4043.21l79.99 3.31c5.17,0.22 9.55,-3.76 9.79,-8.99l6.68 -159.9c0.23,-5.22 -3.81,-9.62 -8.98,-9.78l-79.99 -3.37c-5.19,-0.23 -9.56,3.81 -9.79,8.98l-6.7 159.96c-0.21,5.17 3.82,9.55 9,9.79z"/>
   <path class="fil19" d="M5017.72 3901.24c0,0 -24.07,-26.87 -48.09,-6.35 -24.05,20.51 1.58,64.3 22.44,76.29 20.86,11.96 27.54,18.21 27.54,18.21l-1.89 -88.16z"/>
   <path class="fil31" d="M4398.14 5688.55c8.17,32.44 17.14,63.3 26.27,92.09 1.98,6.12 3.9,12.2 5.86,18.1 0.98,2.98 1.96,5.9 2.9,8.77 1.94,5.68 3.83,11.25 5.73,16.69 2.46,7.14 4.93,14.07 7.38,20.75 1.79,5.01 3.58,9.84 5.34,14.62 27.15,72.81 49.91,118.97 49.91,118.97l54.09 -3.7c0,0 -20.31,-96.59 -24.37,-235.01 -0.13,-4.95 -0.27,-9.89 -0.37,-14.95 -0.21,-10.75 -0.34,-21.65 -0.34,-32.84 0,-4.56 0.03,-9.22 0.06,-13.89 1.09,-119.19 15.84,-260.02 62.93,-394.56 38.3,-109.3 66.05,-211.63 86.13,-304.05 64.79,-298.43 49.56,-494.54 49.56,-494.54l-304.33 35.65 -14.17 1.64c-1.3,139.77 -4.88,329.58 -8.03,477.95 -0.54,25.74 -1.04,50.26 -1.55,73.03 -2.09,95.24 -3.7,160.4 -3.7,160.4 -58.52,126 -37.26,303.83 0.71,454.9z"/>
   <path class="fil19" d="M4252.93 4450.87c57.52,-128.98 85.03,-165.46 85.99,-206.05 0.77,-32.11 -15.07,-66.73 -45.8,-151.64 -7.23,-20.01 -12.24,-40.6 -15.3,-61.39 -24.32,-163.66 70.34,-340.59 129.16,-352.68 16.38,-4.33 44.12,-63.41 43.78,-158.7l7.37 1.46 123.87 24.5c0,0 -2.8,39.02 -2.89,75.73 -0.08,30.6 1.58,61.74 8.5,65.39 8.92,0.85 17.03,2.48 17.03,2.48 0,0 104.84,73.6 111.61,173.45 9.04,133.42 -84.99,291.51 -1.59,558.16 85.15,272.29 -493.5,100.59 -461.72,29.3z"/>
   <path class="fil20" d="M4582.01 3546.36c0,0 -2.8,39.02 -2.89,75.73 -69.33,-1.96 -105.97,-65.16 -120.98,-100.23l123.87 24.5z"/>
   <path class="fil19" d="M4605.17 3581.17c0,0 -164.02,2.69 -164.12,-99.46 -0.12,-102.15 -21.37,-170.63 83.34,-176.65 104.72,-6.07 125.11,32.89 133.44,66.97 8.34,34.13 -9.99,205.84 -52.66,209.15z"/>
   <path class="fil10" d="M4599.09 3302.53c0,0 -44.9,119.87 -113.83,137.57 -68.91,17.71 -98.79,-0.73 -98.79,-0.73 0,0 52.86,-41.99 63.82,-115.3 0,0 114.94,-78.6 148.81,-21.53z"/>
   <path class="fil10" d="M4587.95 3312.25c0,0 33.55,26.76 41.72,52.8 8.17,26.02 11.85,79.56 27.46,77.75 0,0 33.84,-81.47 -4.2,-127.58 -40.31,-48.85 -64.99,-2.98 -64.99,-2.98z"/>
   <path class="fil19" d="M4039.63 4587.88l49.24 14.73c0,0 162.42,-269.47 177.19,-339.58 4.82,-22.83 16.63,-68.54 30.42,-119.71 28.52,-106.03 65.33,-235.74 65.33,-235.74l12.11 -52.51 41.34 -179.01c0,0 -79.16,8.09 -125.47,27.44 -15.33,6.4 -27.02,14.05 -31.11,22.99 -34.02,74.77 -67.98,263.56 -91.84,398.22 -13.31,75.06 -23.46,133.36 -28.76,145.67 -14.77,34.46 -59.88,223.94 -98.44,317.49z"/>
   <path class="fil10" d="M4594.19 3316.3c0,0 -31.99,125.55 -118.95,165.75 0,0 86.96,-77.14 94.35,-160.01 7.38,-82.82 24.6,-5.74 24.6,-5.74z"/>
   <path class="fil32" d="M4223.57 5662.35c17.5,186.77 94.54,307.53 94.54,307.53l26.31 23.95c0,0 23.96,-136.74 41.26,-293.25 16.49,-148.83 39.1,-306.25 64.66,-354.32 38.22,-71.8 66.38,-218.65 86.65,-373.77 33.52,-256.76 45.4,-536.25 45.4,-536.25l-308.55 -15.36c-31.04,52.18 -44.56,137.75 -47.77,235.08 -3.39,102.26 4.67,217.58 15.84,320.58 15.6,144.21 37.33,264.4 42.39,291.4l0.02 0.16c0.68,3.55 -0.37,7.09 -2.02,10.29 -61.41,121.56 -70.29,260.6 -58.73,383.95z"/>
   <path class="fil12" d="M4583.64 4022.07c6.95,169.51 32.3,337.33 106.11,326.54 90.44,-13.21 114,-97.61 118.81,-160.35 2.99,-39.07 -1.31,-69.77 -1.31,-69.77 0,0 -44.52,-0.18 -51.73,-6.81 -34.19,-31.59 -24.04,-341.31 -40.96,-373.48 -16.92,-32.16 -126.74,-52.84 -126.74,-52.84 0,0 -11.06,169.22 -4.17,336.72z"/>
   <path class="fil12" d="M4583.64 4022.07c6.95,169.51 32.3,337.33 106.11,326.54 90.44,-13.21 114,-97.61 118.81,-160.35 -22.21,-1.12 -61.3,-6.57 -76.84,-30.24 -22.23,-33.91 -91.64,-252.27 -91.64,-252.27 0,0 -27.29,49.02 -56.44,116.33z"/>
   <path class="fil10" d="M4398.14 5688.55c8.17,32.44 17.14,63.3 26.27,92.09 1.98,6.12 3.9,12.2 5.86,18.1 0.98,2.98 1.96,5.9 2.9,8.77 1.94,5.68 3.83,11.25 5.73,16.69 2.46,7.14 4.93,14.07 7.38,20.75 1.79,5.01 3.58,9.84 5.34,14.62 27.15,72.81 49.91,118.97 49.91,118.97l54.09 -3.7c0,0 -20.31,-96.59 -24.37,-235.01 -0.13,-4.95 -0.27,-9.89 -0.37,-14.95 -0.21,-10.75 -0.34,-21.65 -0.34,-32.84 0,-4.56 0.03,-9.22 0.06,-13.89 1.09,-119.19 15.84,-260.02 62.93,-394.56 38.3,-109.3 66.05,-211.63 86.13,-304.05 -32.16,6.63 -60.48,-0.18 -142.66,-7.03 -8.63,-0.73 -49.94,50.37 -90.71,118.06 -2.1,95.25 -48.86,143.08 -48.86,143.08 -58.52,126 -37.26,303.83 0.71,454.9z"/>
   <path class="fil28" d="M4223.57 5662.35c17.5,186.77 94.54,307.53 94.54,307.53l26.31 23.95c0,0 23.96,-136.74 41.26,-293.25 16.49,-148.83 39.1,-306.25 64.66,-354.32 38.22,-71.8 66.38,-218.65 86.65,-373.77 -28.4,11.8 -125.06,42.51 -295.08,4.05 15.6,144.21 37.33,264.4 42.39,291.4l0.02 0.16c0.68,3.55 -0.37,7.09 -2.02,10.29 -61.41,121.56 -70.29,260.6 -58.73,383.95z"/>
   <path class="fil28" d="M4164.46 4753.74c0,0 64.56,19.96 159.67,33.11 117.76,16.25 282.36,22.1 429.37,-33.11 0,0 12.11,-218.76 -22.73,-332.78 -34.83,-114.08 -51.12,-168.62 -51.12,-168.62 0,0 -139.56,34.98 -281.29,7.83 -19.91,-3.76 -39.85,-8.83 -59.44,-15.35 0,0 -87.44,185.65 -111.48,265.15 -24.04,79.56 -62.99,243.78 -62.99,243.78z"/>
   <path class="fil10" d="M4164.46 4753.74c0,0 64.56,19.96 159.67,33.11 174.39,-98.89 89.35,-515.05 89.35,-515.05 -5.17,-4.16 -10.21,-8.04 -15.11,-11.64 -19.91,-3.76 -39.85,-8.83 -59.44,-15.35 0,0 -87.44,185.65 -111.48,265.15 -24.04,79.56 -62.99,243.78 -62.99,243.78z"/>
   <path class="fil14" d="M4021.71 4337.36c0,42.56 43.44,68.76 90.04,81.47 44.82,12.26 92.55,12.08 107.48,2.07 25.77,-17.25 67.75,-209.19 80.01,-267.61 2.19,-10.57 3.45,-16.75 3.45,-16.75 0,0 33.47,79.89 34.52,87.31 0.47,3.37 0.88,7.93 1.18,12.03 0.34,4.9 0.55,8.94 0.55,8.94 0,0 181.68,91.69 340.72,7.47 0,0 64.66,-373.65 36.59,-437.96 -13.95,-31.94 -86.69,-97.89 -115.8,-126.33 -6.54,-6.42 -5.89,-19.07 -3.35,-30.65 2.09,-9.79 -6.72,-18.38 -16.38,-15.85 -18.73,4.89 -52.41,4.05 -88.5,-7.82 -17.97,-5.85 -36.52,-14.44 -54.09,-26.43 -5.11,-3.48 -12.05,-0.28 -12.83,5.86 -2.74,22.27 -9.49,62.97 -21.77,62.97 -16.93,-0.12 -132.43,14.06 -140.89,28.33 -2.94,5.01 -32.98,72.92 -70.89,162.94l-0.06 0.22c-71.17,168.9 -169.98,415.32 -169.98,469.8z"/>
   <path class="fil12" d="M4302.69 4136.54c0,0 33.47,79.89 34.52,87.31 0.47,3.37 0.88,7.93 1.18,12.03 16.19,13.21 35.75,23.22 55.7,29.24 56.63,17.2 81.25,-91.36 77.86,-145.56 -3.39,-54.14 -83.48,-208.76 -110.16,-211.96 -26.64,-3.2 -59.1,228.95 -59.1,228.95z"/>
   <path class="fil3" d="M4299.23 4153.29c2.19,-10.57 3.45,-16.75 3.45,-16.75 -1.77,5.68 -2.92,11.3 -3.45,16.75z"/>
   <path class="fil33" d="M4531.46 4293.5c103.38,0 146,-35.59 149.16,-38.01l6.68 -48.69c-0.99,0.73 -139.71,84.06 -354.39,4.28l4.54 36.88c82.58,30.64 140.32,45.53 194.02,45.53z"/>
   <path class="fil12" d="M4021.71 4337.36c0,42.56 43.44,68.76 90.04,81.47 -64.25,-76.51 76.34,-539.4 79.94,-551.26 -71.17,168.9 -169.98,415.32 -169.98,469.8z"/>
   <path class="fil12" d="M4403.52 3676.07c0,0 86.5,54.76 151.94,41.77 0,0 15.71,-9.89 -5.96,-19.91 -20.34,-9.33 -67.67,-37 -57.28,-64.26 -17.97,-5.85 -36.52,-14.44 -54.09,-26.43 -5.11,-3.48 -12.05,-0.28 -12.83,5.86 -2.74,22.27 -9.49,62.97 -21.77,62.97z"/>
   <path class="fil10" d="M4470.38 6023.91l34.54 0c11.56,-1.79 20.1,-5.17 31.97,-6.75 18.02,-2.36 26.3,5.07 27.96,6.75l0.31 0.34 146.69 0c3.69,-5.3 0.14,-17.49 -3.33,-26.43 -2.34,-6.13 -7.43,-10.75 -13.73,-12.6 -15.55,-4.5 -46.23,-8.48 -74.3,-33.9 -15.79,-14.28 -76.29,-52.51 -76.29,-52.51l-0.32 -0.07c-1.33,0 -7.65,1.98 -35.17,25.19 -14.22,11.96 -38.46,-16.93 -38.46,-16.93 0,0 -4.56,3.76 -7.96,10.75 -2.72,5.56 -4.72,13.16 -3.15,22.54 2.19,13.21 -4.86,37.78 -10.51,54.36 -3.4,10.07 -6.29,17.21 -6.29,17.21 0,0 -1.65,8.33 28.05,12.03z"/>
   <path class="fil11" d="M4462.29 5917.77c8.24,5.84 25.65,17.25 37.18,18.77 15.59,2.03 44.72,-37.72 44.72,-37.72l-0.32 -0.07c-1.33,0 -7.65,1.98 -35.17,25.19 -14.22,11.96 -38.46,-16.93 -38.46,-16.93 0,0 -4.56,3.76 -7.96,10.75z"/>
   <path class="fil11" d="M4470.38 6023.91l34.54 0c11.56,-1.79 20.1,-5.17 31.97,-6.75 18.02,-2.36 26.3,5.07 27.96,6.75l0.31 0.34 146.69 0c3.69,-5.3 0.14,-17.49 -3.33,-26.43 -4.46,-3.99 -5.71,17.21 -8.17,20.52 -2.46,3.43 -119.66,1.23 -126.42,-3.66 -6.77,-4.94 -27.08,-13.55 -55.38,-6.79 -24.64,5.9 -60.93,-9.18 -69.93,-13.22 -3.4,10.07 -6.29,17.21 -6.29,17.21 0,0 -1.65,8.33 28.05,12.03z"/>
   <path class="fil10" d="M4286.13 6023.91l34.53 0c11.56,-1.79 20.1,-5.17 31.97,-6.75 18.01,-2.36 26.3,5.07 27.96,6.75l0.3 0.34 146.69 0c3.7,-5.3 0.15,-17.49 -3.32,-26.43 -2.34,-6.13 -7.43,-10.75 -13.72,-12.6 -15.56,-4.5 -46.22,-8.48 -74.31,-33.9 -15.79,-14.28 -76.29,-52.51 -76.29,-52.51l-0.32 -0.07c-1.33,0 -7.65,1.98 -35.17,25.19 -14.22,11.96 -38.46,-16.93 -38.46,-16.93 0,0 -4.56,3.76 -7.96,10.75 -2.73,5.56 -4.72,13.16 -3.14,22.54 2.18,13.21 -4.89,37.78 -10.51,54.36 -3.42,10.07 -6.31,17.21 -6.31,17.21 0,0 -1.65,8.33 28.06,12.03z"/>
   <path class="fil11" d="M4278.03 5917.77c8.24,5.84 25.65,17.25 37.19,18.77 15.58,2.03 44.72,-37.72 44.72,-37.72l-0.32 -0.07c-1.33,0 -7.65,1.98 -35.17,25.19 -14.22,11.96 -38.46,-16.93 -38.46,-16.93 0,0 -4.56,3.76 -7.96,10.75z"/>
   <path class="fil11" d="M4286.13 6023.91l34.53 0c11.56,-1.79 20.1,-5.17 31.97,-6.75 18.01,-2.36 26.3,5.07 27.96,6.75l0.3 0.34 146.69 0c3.7,-5.3 0.15,-17.49 -3.32,-26.43 -4.45,-3.99 -5.71,17.21 -8.17,20.52 -2.47,3.43 -119.66,1.23 -126.43,-3.66 -6.77,-4.94 -27.06,-13.55 -55.37,-6.79 -24.64,5.9 -60.93,-9.18 -69.91,-13.22 -3.42,10.07 -6.31,17.21 -6.31,17.21 0,0 -1.65,8.33 28.06,12.03z"/>
   <path class="fil10" d="M3917.63 4797.7c3.41,-17.14 15.47,-31.08 31.85,-37.17 26.59,-9.88 70.09,-18.76 123.62,-3.03 90.31,26.54 99.16,82.08 93.18,122 -5.97,39.92 11.74,103.57 9.14,148.88 -2.59,45.26 -15.58,159.05 -82.45,153.03 -66.87,-5.96 -282.46,-63.91 -282.46,-63.91 0,0 -37.24,-70.85 39.27,-173.51 45.39,-60.94 61.9,-116.38 67.86,-146.29z"/>
   <path class="fil10" d="M3959.01 4745.36l17.89 1.64c0.01,-0.07 2.06,-12.38 10.28,-20.19 6.32,-5.96 15.04,-8.09 25.92,-6.36 10.3,1.69 17.71,6.42 21.47,14 5.3,10.74 2.37,24.51 2.33,24.69l17.44 3.99c0.23,-0.9 5.26,-23.33 -3.87,-42.16 -6.28,-13.04 -17.51,-20.52 -33.05,-23.45 -16.03,-2.53 -29.57,1.35 -40.29,11.65 -14.77,14.22 -17.98,35.3 -18.1,36.21z"/>
   <path class="fil28" d="M3766.19 5107.43c0,0 215.6,58.08 282.54,63.93 66.87,6.07 79.9,-107.66 82.35,-153.15 2.64,-45.14 -15.01,-108.84 -9.14,-148.82 1.23,-7.58 1.9,-15.97 1.37,-24.4 -1.73,-35.64 -21.68,-76.12 -94.41,-97.48 -53.67,-15.8 -97.07,-6.75 -123.75,3.09 -16.3,6.07 -28.5,19.96 -31.88,37.05 -0.79,3.5 -1.5,7.77 -2.44,11.92 -7.69,31.76 -25.45,81.12 -65.42,134.42 -76.53,102.61 -39.22,173.45 -39.22,173.45z"/>
   <path class="fil10" d="M4098.52 5027.76c0,0 -29.98,28.9 -70.5,18.73 -40.5,-10.18 -59.46,-48.12 -59.46,-48.12l129.95 29.39z"/>
   <path class="fil10" d="M3942.2 4992.4c0,0 -29.98,28.9 -70.5,18.71 -40.52,-10.16 -59.45,-48.12 -59.45,-48.12l129.94 29.41z"/>
   <path class="fil10" d="M3873.28 4787.64c-0.79,3.5 -1.5,7.77 -2.44,11.92 17.16,35.48 49.74,80.73 104.85,91.25 93.74,18.26 147.63,-45.83 147.63,-45.83 -1.73,-35.64 -21.68,-76.12 -94.41,-97.48 -53.67,-15.8 -97.07,-6.75 -123.75,3.09 -16.3,6.07 -28.5,19.96 -31.88,37.05z"/>
   <path class="fil30" d="M3974.36 4910.49l0 0c5.86,1.28 11.75,-2.42 13.09,-8.27l2.19 -9.73c1.33,-5.85 -2.39,-11.75 -8.24,-13.05 -5.87,-1.33 -11.76,2.37 -13.09,8.27l-2.19 9.67c-1.33,5.86 2.39,11.75 8.25,13.11z"/>
   <path class="fil19" d="M4043.11 4579.68c0,0 -14.96,35.25 -30.56,45.08 -15.58,9.84 -30.39,33.51 -33.63,52.51 -5.93,34.96 20.84,56.62 40.52,56.62 19.7,0 38.51,-26.81 50.09,-90.97 0.63,-3.49 19.33,-40.31 19.33,-40.31l-45.75 -22.93z"/>
   <path class="fil10" d="M6965.82 6039.65l12.26 -1310.99c0,0 10.55,-94.4 92.94,-94.4 87.86,0 92.93,94.4 92.93,94.4 0,0 -1.23,8.22 -10.29,8.22 -9.44,0 -10.96,-8.22 -10.96,-8.22 0,0 -3.94,-72.75 -71.68,-72.75 -63.48,0 -71.64,72.75 -71.64,72.75l0 1310.99 -33.56 0z"/>
   <path class="fil10" d="M7010.68 6039.65l-54.7 0 4.89 -57.12c0,0 -0.45,-7.93 10.57,-8.38 10.29,-0.45 30.53,-1.91 32.44,4.33 1.68,5.4 6.8,61.17 6.8,61.17z"/>
   <path class="fil19" d="M7071.68 4564.78l3.77 18.78c0,0 92.65,-0.35 114.36,98.94 0,0 5.84,41.33 -23.97,32.49 -29.78,-8.77 -25.13,-29.91 -67.34,-41.43 -42.17,-11.59 -69.65,-20.41 -76.07,-51.12l-6.92 -34.18 56.16 -23.49z"/>
   <path class="fil14" d="M6743.96 3751.92c0,0 24.51,96.48 45.66,184.68 8.48,35.54 16.47,69.72 22.08,95.7 5.74,26.7 8.94,44.75 7.72,46.77 -18.4,29.87 15.23,211.85 41.77,277.92 2.35,5.85 5.56,12.76 9.44,20.36 37.16,72.86 136.12,215.77 136.12,215.77 0,0 27.88,2.93 46.16,-3.94 15.17,-5.79 25.58,-24.39 25.58,-24.39 -8.83,-14.22 -44.65,-182.44 -90.69,-276.73 -19.68,-40.36 -48.69,-414.64 -86.86,-465.02 -31.82,-42.05 -156.97,-71.11 -156.97,-71.11z"/>
   <path class="fil12" d="M6819.42 4079.06c-18.4,29.87 15.23,211.85 41.77,277.92 2.35,5.85 5.56,12.76 9.44,20.36 35.52,-157.09 -23.34,-379.56 -23.34,-379.56 -14.67,5.8 -26.41,17.94 -35.59,34.52 5.74,26.7 8.94,44.75 7.72,46.77z"/>
   <path class="fil34" d="M6562.13 5895.28c0,0 -9.44,142.12 17.44,144.15 3.54,0.23 136.16,0.23 136.16,0.23l170.97 0c0,0 -2.87,-41.72 -52.34,-50.37 -49.47,-8.6 -132.29,-43.36 -162.25,-108.74 -31.5,-68.81 -109.99,14.73 -109.99,14.73z"/>
   <path class="fil35" d="M6304.92 5895.28c0,0 -9.44,142.12 17.43,144.15 3.55,0.23 136.12,0.23 136.12,0.23l171.03 0c0,0 -2.87,-41.72 -52.34,-50.37 -49.49,-8.6 -132.29,-43.36 -162.26,-108.74 -31.48,-68.81 -109.97,14.73 -109.97,14.73z"/>
   <path class="fil28" d="M6554.04 5552.66c-4.2,60.1 -12.76,137.4 -9.73,207.06 4.28,97.43 7.37,179.57 7.37,179.57 64.26,21.87 182.1,-4.67 182.1,-4.67 0,0 41.77,-246.2 76.23,-442.75 15.47,-88.04 28.28,-164.22 33.06,-200.21 15.45,-116.26 -16.49,-734.48 -16.49,-734.48 0,0 -173.83,-111.43 -245.63,-53.98 -71.79,57.4 -115.98,113.52 -0.28,742.64 8.78,47.68 -17.19,172.15 -26.65,306.81z"/>
   <path class="fil10" d="M6554.04 5552.66c-4.2,60.1 -11.92,156.29 -8.88,225.94 60.43,-63.91 179.52,-198.85 264.86,-286.73 15.47,-88.04 28.28,-164.22 33.06,-200.21 15.45,-116.26 -16.49,-734.48 -16.49,-734.48 0,0 -173.83,-111.43 -245.63,-53.98 -71.79,57.4 -115.98,113.52 -0.28,742.64 8.78,47.68 -17.19,172.15 -26.65,306.81z"/>
   <path class="fil28" d="M6669.53 4569.72c0,0 -15.63,618.9 -40.03,733.65 -24.35,114.75 -151.69,640.03 -151.69,640.03 0,0 -119.3,10.85 -181.65,-15.84 0,0 3.99,-243.28 25.13,-386.2 19.8,-133.53 55.21,-255.64 50.15,-303.87 -67.01,-636.11 -18.66,-688.67 57.35,-740.4 76.01,-51.77 240.75,72.64 240.75,72.64z"/>
   <path class="fil19" d="M6433.62 4623.93c0,0 41.38,82.98 -38.12,146.35 0,0 -34.47,23.54 -39.76,-7.03 -5.28,-30.64 0.85,-19.96 -7.48,-62.91 -8.31,-42.96 2.32,-87.38 27.05,-106.72l58.31 30.32z"/>
   <path class="fil19" d="M6782.14 3611.69c0,0 -47.73,72.52 -38.23,140.22l-70.62 170.12 -127.41 -194.75c0,0 67.31,-73.26 92.44,-173.1l143.82 57.51z"/>
   <path class="fil19" d="M6803.06 3673.6c0,0 -173.79,7.53 -176.93,-96.81 -3.15,-104.29 -50.1,-173.67 79.82,-182.85 106.88,-7.59 142.43,37 151.98,71.57 9.5,34.57 9.55,202.52 -54.87,208.08z"/>
   <path class="fil14" d="M6377.61 4599.57c37.33,3.44 88.78,7.77 151.13,11.7 12.49,0.78 25.36,1.52 38.63,2.3 188.28,10.51 263.17,-19.96 263.17,-19.96 0,0 4.96,-4.05 3.38,-26.14 -8.15,-113.9 -32.33,-147.52 -29.4,-169.16 6.51,-48.65 124.52,-445.51 124.52,-445.51 0,0 2.26,-125.37 -137.18,-184.24 -14.34,-6.07 -30.19,-11.42 -47.74,-15.86 -6.13,16.25 -22.82,43.34 -65.66,38.35 -63.32,-7.37 -108.34,-44.71 -127.69,-63.87 -3.48,0 -4.9,0.11 -4.9,0.11 -4.71,13.33 -8.36,27.26 -11.69,41.38 -11.41,49.31 -18.1,101.14 -48.35,139.88 -29.85,38.29 -55.37,76.01 -77.19,112.95 -18.1,30.69 -33.68,60.83 -46.99,90.23 -123.41,272.79 -27.96,483.68 15.95,487.83z"/>
   <path class="fil12" d="M6377.61 4599.57c37.33,3.44 88.78,7.77 151.13,11.7 18.17,-306.52 -106.7,-600.84 -106.7,-600.84 -4.66,3.26 -9.16,6.97 -13.38,11.07 -21.76,21.08 -36.88,52.45 -46.99,90.23 -37.17,138.99 -6.08,364.72 15.95,487.83z"/>
   <path class="fil28" d="M6859.06 3574.08c0,0 33.84,134.21 -23.56,153.15 -57.41,18.89 -209.83,3.7 -209.78,-160.8 0,0 80.01,47.69 118.19,46.49 38.23,-1.23 62.85,-23.27 98.16,-6.07 0,0 12.94,-0.83 16.99,-32.77z"/>
   <path class="fil14" d="M6545.88 3727.29c0,0 -121.44,2.74 -185.63,86.24 -49.15,63.99 -101.15,407.34 -101.15,459 0,51.73 55.37,337 86.35,367.98 0,0 20.07,5.18 46.84,0 28.45,-5.46 45.14,-21.92 45.14,-21.92 0,0 -15.4,-317.6 -15.4,-347.4 0,-43.11 134.88,-307.13 134.88,-307.13 0,0 69.94,-125.71 -11.03,-236.76z"/>
   <path class="fil28" d="M6634.27 3426.38c2.93,-10.68 16.08,-16.23 16.08,-16.23 97.89,-42.68 169.36,3.99 169.36,3.99 -60,-80.51 -204.77,-63.59 -235.25,8.98 -49.81,118.65 41.26,143.32 41.26,143.32 0,0 90.98,-38.23 38.29,-86.13 -17.43,-15.86 -25.87,-29.98 -28.67,-42.28 -0.96,-4.1 -1.24,-7.99 -1.07,-11.65z"/>
   <polygon class="fil19" points="2816.16,5709.07 2794.94,5798.29 2766.77,5916.7 2678.76,5916.7 2673.54,5803.3 2669.48,5715.82 "/>
   <path class="fil12" d="M3095.04 3765.8c0,0 69.63,-74.54 114.9,-16.14 45.27,58.48 95.45,97.89 164.93,142.82 69.48,44.92 -61.39,397.15 -148.42,389.91 -87.03,-7.21 -442.13,-284.88 -131.41,-516.58z"/>
   <path class="fil23" d="M2748.3 3730.32c17.38,-12.99 177.42,-67.9 333.45,-13.88 156.05,54.04 -120.84,204.6 -120.84,204.6l-89.75 3.82 -122.86 -194.54z"/>
   <path class="fil19" d="M2850.18 3628.56c0,0 -3.1,95.97 -15.38,138.93l-97.19 209.47 365.83 -86.91 -87.25 -120.54c0,0 -26.33,-128.63 -12.51,-176.25 13.81,-47.57 -153.5,35.31 -153.5,35.31z"/>
   <path class="fil36" d="M2849.65 3641.84c0,-0.06 28.92,69.66 83.41,68.08 54.5,-1.51 66.9,-63.14 66.9,-63.14l-150.31 -4.94z"/>
   <path class="fil37" d="M2817.12 3585.43c0,0 -17.6,-87.81 -29.88,-114.46 -12.27,-26.6 -22.5,-145.28 113.59,-151.4 0,0 52.18,6.12 80.84,-11.3 0,0 0,17.42 -7.16,23.54 0,0 47.07,-11.23 83.91,29.69 36.84,40.94 -24.55,184.18 -21.49,217.97l-219.81 5.96z"/>
   <path class="fil19" d="M2926.81 3683.04c-39.48,-0.72 -112.15,-53.3 -112.15,-118.41l0 -101.6c0,-23.78 16.58,-43.23 36.83,-43.23l150.64 0c20.26,0 36.84,19.45 36.84,43.23l0 95.87c0,68.24 -66.87,124.91 -112.17,124.13z"/>
   <path class="fil37" d="M2814.66 3517.3c0,0 0.21,-61.05 48.56,-70.45 48.35,-9.39 156.56,29.74 171.92,-14.73 15.34,-44.52 -209.17,-43.74 -220.48,-15.35 -11.31,28.4 0,100.53 0,100.53z"/>
   <path class="fil28" d="M3204.87 4553.93l-214.17 13.38c-1.23,-2.03 -2.62,-2.03 -4.15,0.28l-63.01 3.94 -268.52 -16.81c0,0 -67.54,308.33 -41.01,719.08 8.46,131.05 21.91,306.08 24.65,431.39l199.19 0c23.87,-155.22 57.09,-315.62 71.91,-382.14 6.75,-30.19 13,-60.15 18.84,-89.72 5.32,33.73 8.73,61.12 8.66,78.2 -0.11,27.28 7.85,70.75 18.87,123.07 15.49,73.77 37.07,165.19 50.64,254.02l202.08 0c2.32,-122.34 27.81,-289.21 30.03,-414.81 5.85,-334.98 -34,-719.87 -34,-719.87z"/>
   <path class="fil10" d="M2628.01 4712.75c0,0 76.71,92.94 285.13,79.5 208.42,-13.38 307.86,-49.7 307.86,-49.7l-592.99 -29.8z"/>
   <path class="fil22" d="M3221 4742.55c-68.08,9.28 -531.26,33.34 -592.99,-29.8 -61.75,-63.2 100.8,-925.08 100.8,-925.08 0,0 18.4,-5.28 49.47,-11.13 15.83,-3.05 34.93,-6.13 56.56,-8.72 0.26,6.74 5.61,108.34 89.97,150.28 0,0 101.32,-40.59 91.39,-148.65 -0.11,-1.23 -0.25,-2.47 -0.43,-3.65 13.52,1.41 27.21,3.32 40.96,5.68 27.79,4.78 55.92,11.52 83.83,20.75 0,0 148.53,941.11 80.44,950.32z"/>
   <path class="fil22" d="M2631.9 4297.61c-2.74,3.6 15.73,30.13 41.77,64.2 53.59,70.05 139.32,171.99 139.32,171.99 -1.16,34.57 -5.97,56.89 -5.97,56.89 -117.76,-55.66 -197.38,-107.71 -250.16,-149.5 -74.2,-58.8 -95.47,-97.38 -95.47,-97.38 118.97,-503.29 271.62,-555.7 271.62,-555.7l49.81 303.33c0,0 -142.58,195.26 -150.92,206.16z"/>
   <path class="fil25" d="M3056.73 3771.48l-30.68 93.32 -40.9 60.06 -58.72 31.88 -55.26 -31.88 -92.89 -148.32c15.83,-3.05 34.93,-6.13 56.56,-8.72 0.26,6.74 5.61,108.34 89.97,150.28 0,0 101.32,-40.59 91.39,-148.65 -0.11,-1.23 -0.25,-2.47 -0.43,-3.65 13.52,1.41 27.21,3.32 40.96,5.68z"/>
   <path class="fil19" d="M2813 4533.84c-0.03,0.98 -0.05,1.92 -0.11,2.87 -0.26,6.36 -0.64,12.31 -1.1,17.77 -2.94,4.05 -6.22,7.93 -9.79,11.53 -5.41,5.45 -11.26,10.06 -17.23,13.93 -2.98,-1.39 -5.96,-2.92 -8.88,-4.31 -100.86,-49.99 -171.03,-96.42 -219.04,-134.44 30.47,-9.38 73.13,-30.8 116.81,-79.38 53.59,70.05 139.33,172.03 139.33,172.03z"/>
   <path class="fil22" d="M3397.82 4325.32c0,0 -20.54,38.97 -93.61,99.19 -51.96,42.79 -130.57,96.36 -247.24,154.21 0,0 -5.26,-22.21 -7.06,-56.73 0,0 83.74,-103.56 135.99,-174.63 25.39,-34.57 43.35,-61.45 40.55,-64.98 -6.64,-8.33 -96.02,-125.89 -135.9,-178.3 -11.56,-15.23 -18.95,-24.95 -18.95,-24.95l50.49 -298.22c0,0 147.13,43.47 275.73,544.41z"/>
   <path class="fil19" d="M3304.2 4424.51c-47.41,39.01 -117.01,87.02 -217.43,139.08 -2.49,1.3 -5.01,2.59 -7.55,3.89 -12.83,-15.47 -20.61,-33.9 -25.36,-50.38 1.68,-2.09 3.85,-4.83 6.52,-8.09 24.06,-30.03 84.49,-105.86 125.51,-161.64 44.58,47.73 87.69,68.31 118.31,77.14z"/>
   <path class="fil19" d="M3015.76 3765.8c-67.58,-7.25 -130.96,-3.99 -180.93,2.03l-0.04 -0.33c0,0 167.48,-103.57 180.97,-1.69z"/>
   <polygon class="fil38" points="2847.8,4058.72 2844.36,4058.72 2841.84,3897.3 2850.52,3897.3 "/>
   <path class="fil25" d="M2844.02 4054.5c-3.13,4.72 -10.17,20.35 -5.5,21.99 4.67,1.62 12.86,1.73 15.08,-0.46 2.19,-2.19 -3.67,-30.42 -9.58,-21.53z"/>
   <polygon class="fil38" points="3006.34,4058.72 3002.9,4058.72 3000.36,3897.3 3009.06,3897.3 "/>
   <path class="fil25" d="M3002.54 4054.5c-3.13,4.72 -10.15,20.35 -5.49,21.99 4.67,1.62 12.86,1.73 15.08,-0.46 2.19,-2.19 -3.67,-30.42 -9.59,-21.53z"/>
   <path class="fil23" d="M2871.16 3924.86l-142.36 -137.19c0,0 -32.04,-22.72 18.6,-56.73 50.66,-34.02 123.75,193.92 123.75,193.92z"/>
   <path class="fil23" d="M2985.13 3924.86l142.36 -137.19c0,0 32.04,-22.72 -18.6,-56.73 -50.66,-34.02 -123.75,193.92 -123.75,193.92z"/>
   <path class="fil23" d="M3163.8 4580.62c-27.73,2.37 -50.86,-4.6 -68.73,-20.56 -3,-2.65 -5.76,-5.51 -8.31,-8.55 -14.07,-16.42 -21.97,-37.16 -26.4,-54.59 -5.09,-19.96 -5.65,-35.65 -5.65,-35.99l-0.12 -3.99 -229.94 0 0.15 4.26c0.91,24.75 -3.1,45.94 -11.92,63.42 -4.38,8.72 -9.97,16.54 -16.74,23.33 -6.25,6.3 -13.17,11.42 -20.26,15.52 -30.78,17.83 -65.01,17.14 -65.46,17.14l-4.25 -0.16 0 97.16 462.11 0 0 -97.39 -4.49 0.39z"/>
   <path class="fil23" d="M3226.45 4282.38c0,0 -128.18,-168.18 -26.73,-217.15 40.29,-19.44 96.99,211.34 66.58,233.05 -30.38,21.76 -80.41,49.08 -80.41,49.08l40.56 -64.98z"/>
   <path class="fil23" d="M2646.66 4242.57c0,0 44.52,-211.18 5.46,-189.42 -39.08,21.7 -96.98,211.34 -66.58,233.04 30.39,21.71 80.41,49.09 80.41,49.09l-19.29 -92.71z"/>
   <path class="fil12" d="M3208.47 4281.92c-58.54,-72.7 -80.39,-190.65 -77.41,-312.43 2.24,-91.42 14.77,-173.95 15.6,-176.82l48 37.39c-0.18,0.68 -27.56,50.71 -29.67,139.66 -1.94,81.34 -5.78,143.3 40.19,284.93l3.29 27.27z"/>
   <path class="fil10" d="M2764.06 5750.11l-103.14 -0.05c-9.12,1.01 -23.41,-12.31 -23.41,-31.43 0,0 -0.21,-45.82 -3.24,-53.97 -13.27,-35.7 6.47,-37.62 25.57,-37.62l188.17 0c19.1,0 -10.17,59.04 -10.17,78.15l6.78 25.09c0,19.05 -61.47,19.84 -80.56,19.84z"/>
   <path class="fil10" d="M2766.77 5916.7l0 0 28.17 -118.36c-64.15,22.05 -108.3,9.79 -121.4,4.96l5.22 113.4 0 0c0,0 -22.5,58.35 -28.65,72.69 -6.14,14.28 -6.14,57.41 -6.14,57.41l140.2 0c0,0 1.02,-42.06 0,-59.48 -1.03,-17.38 -17.39,-70.56 -17.4,-70.61z"/>
   <polygon class="fil19" points="3030.72,5709.07 3051.95,5798.34 3080.11,5916.7 3168.12,5916.7 3173.36,5803.3 3177.4,5715.82 "/>
   <path class="fil10" d="M3082.84 5750.11l103.12 -0.05c9.13,1.01 23.41,-12.31 23.41,-31.43 0,0 0.23,-45.82 3.25,-53.97 13.26,-35.7 -6.47,-37.62 -25.57,-37.62l-188.17 0c-19.1,0 10.17,59.04 10.17,78.15l-6.78 25.09c0,19.05 61.45,19.84 80.56,19.84z"/>
   <path class="fil10" d="M3196.61 5989.39c-6.14,-14.34 -28.65,-72.64 -28.65,-72.69l0.16 0 5.24 -113.4c-13.11,4.83 -57.26,17.09 -121.41,-4.96l28.16 118.36 -0.17 0c0,0 -16.38,53.23 -17.39,70.61 -1.02,17.43 0,59.48 0,59.48l140.19 0c0,0 0,-43.12 -6.13,-57.41z"/>
   <polygon class="fil3" points="1362.95,6047.01 1233.44,6047.01 1284.7,3126.45 1292.4,2688.42 1353.71,2688.42 1354.82,3082.48 "/>
   <path class="fil39" d="M1354.82 3082.48c-20.53,10.16 -44.92,24.52 -70.11,43.97l7.69 -438.03 61.32 0 1.1 394.06z"/>
   <path class="fil14" d="M1642.48 2756.33l-688.57 0c-21.65,0 -39.35,-17.71 -39.35,-39.35l0 -970.55c0,-21.65 17.7,-39.35 39.35,-39.35l688.57 0c21.63,0 39.34,17.7 39.34,39.35l0 970.55c0,21.64 -17.71,39.35 -39.34,39.35z"/>
   <path class="fil40" d="M1601.9 2707.3l-607.41 0c-19.39,0 -35.26,-15.91 -35.26,-35.31l0 -882.86c0,-19.39 15.87,-35.26 35.26,-35.26l607.41 0c19.39,0 35.25,15.87 35.25,35.26l0 882.86c0,19.4 -15.86,35.31 -35.25,35.31z"/>
   <path class="fil12" d="M1127.08 2150.24c-11.89,0 -21.54,-9.64 -21.54,-21.54 0,-11.9 9.65,-21.53 21.54,-21.53 11.9,0 21.53,9.64 21.53,21.53 0,11.9 -9.64,21.54 -21.53,21.54zm8.2 -69.24c-33.11,-5.43 -61.34,22.78 -55.91,55.9 3.29,20.06 19.46,36.23 39.52,39.52 33.11,5.44 61.33,-22.79 55.91,-55.9 -3.29,-20.05 -19.46,-36.22 -39.52,-39.51z"/>
   <path class="fil12" d="M1455.21 2149.98c-14.58,2.25 -27,-10.18 -24.7,-24.76 1.43,-9.07 8.86,-16.44 17.93,-17.81 14.55,-2.17 26.84,10.18 24.62,24.7 -1.38,9.05 -8.79,16.46 -17.84,17.87zm4.84 -68.98c-33.15,-5.49 -61.43,22.74 -55.98,55.9 3.29,20.05 19.46,36.22 39.53,39.5 33.1,5.41 61.27,-22.74 55.9,-55.84 -3.26,-20.06 -19.4,-36.24 -39.44,-39.57z"/>
   <path class="fil12" d="M1513.03 1992.63c0,7.17 -5.81,12.99 -12.99,12.99l-75.02 0c-7.18,0 -13,-5.81 -13,-12.99l0 -47.23c0,-7.17 5.81,-12.99 13,-12.99l75.02 0c7.17,0 12.99,5.81 12.99,12.99l0 47.23zm-124.98 0c0,7.17 -5.81,12.99 -12.99,12.99l-75.04 0c-7.17,0 -12.99,-5.81 -12.99,-12.99l0 -47.23c0,-7.17 5.81,-12.99 12.99,-12.99l75.04 0c7.17,0 12.99,5.81 12.99,12.99l0 47.23zm-124.2 0c0,7.17 -5.81,12.99 -13,12.99l-75.02 0c-7.17,0 -12.99,-5.81 -12.99,-12.99l0 -47.23c0,-7.17 5.81,-12.99 12.99,-12.99l75.02 0c7.18,0 13,5.81 13,12.99l0 47.23zm-123.99 0c0,7.17 -5.81,12.99 -12.99,12.99l-54.56 0c-8.46,0 -13.76,-9.14 -9.58,-16.48l24.47 -42.91c4.89,-8.55 13.96,-13.82 23.79,-13.82l15.85 0c7.19,0 13.01,5.82 13.01,13.01l0 47.2zm378.7 -76.24l-419.21 0c-10.21,0 -19.76,5.11 -25.39,13.63l-45.02 67.86c-4,6.02 -6.13,13.1 -6.13,20.35l0 85.34c0,13.88 11.25,25.14 25.14,25.14 9.47,0 17.48,-6.56 19.91,-15.71 6.93,-26.23 30.83,-45.56 59.22,-45.56 27.72,0 51.15,18.41 58.71,43.68 3.14,10.49 12.9,17.59 23.85,17.59l162.99 0c9.48,0 17.49,-6.57 19.91,-15.73 6.94,-26.2 30.83,-45.53 59.23,-45.53 27.95,0 51.52,18.71 58.88,44.28 2.92,10.17 12.46,16.99 23.03,16.99l18.02 0c12.09,0 21.87,-9.79 21.87,-21.87l0 -93.91c0,-4.44 -0.8,-8.84 -2.34,-12.99l-23.38 -63.16c-4.54,-12.25 -16.23,-20.39 -29.3,-20.39z"/>
   <path class="fil12" d="M1201.88 2376.05c10.15,0 16.27,-3.58 16.27,-11.65 0,-7.02 -5.22,-11.35 -17.02,-11.35l-26.58 0 0 22.99 27.33 0zm-6.14 -42.11c10.17,0 16.59,-3.29 16.59,-11.35 0,-6.87 -5.37,-10.75 -15.08,-10.75l-22.69 0 0 22.1 21.19 0zm-43.59 -42.26l48.53 0c11.94,0 21.35,3.3 27.33,9.26 4.77,4.79 7.17,10.61 7.17,18.07 0,11.8 -6.27,18.37 -13.74,22.55 12.1,4.64 19.56,11.65 19.56,25.99 0,19.12 -15.53,28.67 -39.12,28.67l-49.73 0 0 -104.54z"/>
   <path class="fil12" d="M1258.32 2351.42l0 -59.74 22.99 0 0 59.14c0,17.02 8.53,25.84 22.57,25.84 14.02,0 22.54,-8.52 22.54,-25.09l0 -59.89 22.99 0 0 58.99c0,31.66 -17.76,47.19 -45.84,47.19 -28.07,0 -45.25,-15.68 -45.25,-46.44z"/>
   <path class="fil12" d="M1365.69 2380.98l13.59 -16.28c9.4,7.78 19.25,12.71 31.21,12.71 9.41,0 15.08,-3.74 15.08,-10.15 0,-5.82 -3.59,-8.82 -21.06,-13.3 -21.07,-5.38 -34.65,-11.2 -34.65,-32.25 0,-18.97 15.23,-31.52 36.58,-31.52 15.23,0 28.22,4.79 38.83,13.3l-11.95 17.33c-9.26,-6.44 -18.37,-10.31 -27.19,-10.31 -8.81,0 -13.44,4.03 -13.44,9.42 0,6.85 4.49,9.09 22.55,13.73 21.22,5.51 33.16,13.13 33.16,31.65 0,20.75 -15.83,32.41 -38.38,32.41 -15.83,0 -31.8,-5.53 -44.35,-16.73z"/>
   <path class="fil12" d="M1096.95 2560.18l13.61 -16.28c9.39,7.78 19.26,12.71 31.19,12.71 9.42,0 15.09,-3.74 15.09,-10.15 0,-5.82 -3.59,-8.81 -21.07,-13.3 -21.04,-5.38 -34.64,-11.2 -34.64,-32.26 0,-18.96 15.24,-31.49 36.59,-31.49 15.22,0 28.22,4.77 38.83,13.28l-11.95 17.33c-9.24,-6.42 -18.36,-10.3 -27.18,-10.3 -8.8,0 -13.44,4.02 -13.44,9.41 0,6.87 4.49,9.09 22.56,13.73 21.2,5.53 33.16,13.15 33.16,31.65 0,20.76 -15.84,32.42 -38.38,32.42 -15.83,0 -31.82,-5.54 -44.37,-16.74z"/>
   <polygon class="fil12" points="1221.8,2492.1 1190.01,2492.1 1190.01,2470.88 1276.61,2470.88 1276.61,2492.1 1244.8,2492.1 1244.8,2575.42 1221.8,2575.42 "/>
   <path class="fil12" d="M1372.19 2523.16c0,-17.93 -13.14,-32.86 -31.65,-32.86 -18.52,0 -31.36,14.64 -31.36,32.86 0,17.92 13.13,32.84 31.65,32.84 18.52,0 31.36,-14.63 31.36,-32.84zm-87.06 0c0,-29.72 23.45,-54.07 55.7,-54.07 32.27,0 55.4,24.05 55.4,54.07 0,29.71 -23.44,54.05 -55.7,54.05 -32.26,0 -55.41,-24.04 -55.41,-54.05z"/>
   <path class="fil12" d="M1457.91 2523.6c11.5,0 18.23,-6.87 18.23,-16.13 0,-10.3 -7.17,-15.83 -18.68,-15.83l-17.76 0 0 31.96 18.21 0zm-41.2 -52.72l42.71 0c24.93,0 40.01,14.78 40.01,36.44 0,24.19 -18.81,36.73 -42.26,36.73l-17.47 0 0 31.36 -22.99 0 0 -104.53z"/>
   <path class="fil3" d="M1425.63 6039.7l-254.87 0 18.24 -353.08c1.02,-19.67 17.28,-35.13 37,-35.13l142.1 0c21.01,0 38.33,16.48 39.4,37.44l18.13 350.77z"/>
   <path class="fil39" d="M1288.31 6039.7l-117.55 0 18.39 -355.95c0.93,-18.1 15.85,-32.26 33.95,-32.26l36.64 0c29.9,0 53.54,25.35 51.5,55.14l-22.93 333.06z"/>
   <path class="fil3" d="M2358.77 2383.09l-1.88 117.18 -55.86 3524.09c-0.13,8.49 -7.05,15.29 -15.53,15.29l-4.16 0c-16.74,0 -30.43,-13.33 -30.8,-30.08l-77.39 -3401.72 -5.11 -224.76 190.73 0z"/>
   <path class="fil4" d="M2358.77 2383.09l-1.88 117.18c-51.02,15.97 -124.07,47.51 -183.75,107.58l-5.11 -224.76 190.73 0z"/>
   <path class="fil3" d="M7604.79 2383.09l-1.91 117.18 -55.84 3524.09c-0.16,8.49 -7.07,15.29 -15.57,15.29l-4.17 0c-16.69,0 -30.41,-13.33 -30.8,-30.08l-77.36 -3401.72 -5.11 -224.76 190.76 0z"/>
   <path class="fil4" d="M7604.79 2383.09l-1.91 117.18c-51,15.97 -124.09,47.51 -183.74,107.58l-5.11 -224.76 190.76 0z"/>
   <path class="fil12" d="M7857.73 1942.65l0 415.19c0,7.89 -2.19,15.34 -6.02,21.79 -8.38,14.05 -24.5,23.61 -43.06,23.61l-5809.08 0c-26.98,0 -49.02,-20.43 -49.02,-45.4l0 -415.19c0,-24.98 22.04,-45.41 49.02,-45.41l5809.08 0c27.05,0 49.08,20.43 49.08,45.41z"/>
   <path class="fil14" d="M7857.73 1942.65l0 415.19c0,7.89 -2.19,15.34 -6.02,21.79 -17.48,8.03 -35.25,15.93 -53.35,23.61l-2452.86 0c-601.24,-146.43 -1199.94,-344.79 -1639.41,-506l4102.56 0c27.05,0 49.08,20.43 49.08,45.41z"/>
   <path class="fil1" d="M2135.98 5798.29c0,0 -163.5,-249.68 -264.49,-201.84 -100.98,47.84 264.49,201.84 264.49,201.84z"/>
   <path class="fil1" d="M2181.66 5750.11c0,0 -9.61,-180.35 -62.52,-173.1 -52.89,7.19 62.52,173.1 62.52,173.1z"/>
   <path class="fil41" d="M16799.32 6068.89l-16780.26 0c-10.48,0 -19.05,-8.61 -19.05,-19.05l0 -6.53c0,-10.45 8.58,-19.05 19.05,-19.05l16780.26 0c10.55,0 19.13,8.6 19.13,19.05l0 6.53c0,10.44 -8.58,19.05 -19.13,19.05z"/>
  </g>
 </g>
</svg>
