<?xml version="1.0" encoding="UTF-8"?>
<!DOCTYPE svg PUBLIC "-//W3C//DTD SVG 1.1//EN" "http://www.w3.org/Graphics/SVG/1.1/DTD/svg11.dtd">
<!-- Creator: CorelDRAW 2019 (64 Bit) -->
<svg xmlns="http://www.w3.org/2000/svg" xml:space="preserve" width="79.375mm" height="50.6673mm" version="1.1" style="shape-rendering:geometricPrecision; text-rendering:geometricPrecision; image-rendering:optimizeQuality; fill-rule:evenodd; clip-rule:evenodd"
viewBox="0 0 7937.5 5066.73"
 xmlns:xlink="http://www.w3.org/1999/xlink">
 <defs>
  <style type="text/css">
   <![CDATA[
    .fil0 {fill:#FEFEFE}
   ]]>
  </style>
 </defs>
 <g id="Camada_x0020_1">
  <metadata id="CorelCorpID_0Corel-Layer"/>
  <g id="_2814579720016">
   <path class="fil0" d="M-0 2462.06l0 122.36c223.64,216.47 1499.4,1035.37 1855.62,1275.99 307.77,207.9 617.18,418.58 924.21,626.6 283.56,192.13 797.02,604.52 1021.91,549.78 131.66,-228.91 63.98,-1162.81 61.2,-1512.26 869.86,15.61 1771.09,35.67 2490.5,353.09 477.9,210.85 921.96,504.07 1175.93,940.79 102.47,176.21 196.18,373.89 408.13,144.8l0 -332.41c-73.98,-174.28 -94.7,-537.94 -173.72,-752.55 -502.14,-1363.8 -1842.21,-1983.71 -3184.04,-2318.81 -208.97,-52.18 -687.89,-104.01 -715.63,-182.73 1.22,-324.14 64.34,-1157.96 -60.03,-1368.54 -231.15,-50.1 -406.66,142.56 -554.54,242.59l-1393.31 935.81c-364.6,246.39 -1621.9,1051.41 -1856.23,1275.49z"/>
  </g>
 </g>
</svg>
