<?xml version="1.0" encoding="UTF-8"?>
<!DOCTYPE svg PUBLIC "-//W3C//DTD SVG 1.1//EN" "http://www.w3.org/Graphics/SVG/1.1/DTD/svg11.dtd">
<!-- Creator: CorelDRAW 2019 (64 Bit) -->
<svg xmlns="http://www.w3.org/2000/svg" xml:space="preserve" width="180.622mm" height="180.622mm" version="1.1" style="shape-rendering:geometricPrecision; text-rendering:geometricPrecision; image-rendering:optimizeQuality; fill-rule:evenodd; clip-rule:evenodd"
viewBox="0 0 18182.52 18182.53"
 xmlns:xlink="http://www.w3.org/1999/xlink">
 <defs>
  <style type="text/css">
   <![CDATA[
    .fil5 {fill:#FEFEFE}
    .fil2 {fill:#A9ABAE}
    .fil3 {fill:#848688}
    .fil6 {fill:black}
    .fil0 {fill:#898998}
    .fil1 {fill:#ADE5FF}
    .fil4 {fill:white}
   ]]>
  </style>
 </defs>
 <g id="Camada_x0020_1">
  <metadata id="CorelCorpID_0Corel-Layer"/>
  <g id="_2814580268336">
   <g>
    <path class="fil0" d="M4335.75 17694.08c297.01,-172.02 497.18,-493.01 497.18,-861.05l0 -1456.02 -994.36 0.01 0 1456.02c0,368.03 200.03,689.03 497.18,861.05l0 -0.01zm0 0z"/>
    <path class="fil0" d="M14808.81 17713.64c316.56,-166.33 532.69,-498.15 532.69,-880.61l0 -1456.02 -1065.39 0.01 0 1456.02c0,382.46 216.13,714.28 532.69,880.61l0 -0.01zm0 0z"/>
    <path class="fil0" d="M17117.15 8238.96c-392.31,0 -710.26,-317.95 -710.26,-710.26l0 -2272.82c0,-392.31 317.95,-710.26 710.26,-710.26 392.31,0 710.26,317.95 710.26,710.26l0 2272.82c0,392.31 -317.95,710.26 -710.26,710.26zm0 0z"/>
    <path class="fil0" d="M1065.38 8238.96c392.31,0 710.26,-317.95 710.26,-710.26l0 -2272.82c0,-392.31 -317.95,-710.26 -710.26,-710.26 -392.31,0 -710.26,317.95 -710.26,710.26l0 2272.82c0,392.31 317.95,710.26 710.26,710.26zm0 0z"/>
   </g>
   <path class="fil1" d="M13609.43 355.13l-5686.34 0c-956.49,0 -1732.08,775.45 -1732.08,1732.08l0 7004.06 9150.5 0 0 -7004.06c0,-956.63 -775.45,-1732.08 -1732.08,-1732.08zm0 0z"/>
   <path class="fil2" d="M13317.28 355.13l-5607.82 0c-1117.96,0 -2024.22,906.27 -2024.22,2024.22l0 250.81 9656.27 0 0 -250.81c0,-1117.96 -906.27,-2024.22 -2024.22,-2024.22zm0 0z"/>
   <path class="fil3" d="M5504.47 13246.25l10405.23 0 0 2130.77 -10405.23 0 0 -2130.77zm0 0z"/>
   <path class="fil2" d="M15060.6 9091.27l-8527.78 0c-470.83,0 -852.31,381.62 -852.31,852.3l0 3302.68 10232.39 0 0 -3302.68c0,-470.68 -381.63,-852.3 -852.31,-852.3l0.01 0zm0 0z"/>
   <path class="fil4" d="M5685.23 11168.76c0,392.31 -318.08,710.26 -710.26,710.26 -392.31,0 -710.26,-317.95 -710.26,-710.26 0,-392.31 317.95,-710.26 710.26,-710.26 392.17,0 710.26,317.95 710.26,710.26zm0 0z"/>
   <path class="fil4" d="M13921 11168.76c0,392.31 -317.95,710.26 -710.26,710.26 -392.31,0 -710.26,-317.95 -710.26,-710.26 0,-392.31 317.95,-710.26 710.26,-710.26 392.31,0 710.26,317.95 710.26,710.26zm0 0z"/>
   <path class="fil5" d="M7249.18 10458.5l3693.32 0 0 1420.51 -3693.32 0.01 0 -1420.52zm0 0z"/>
   <path class="fil6" d="M17472.27 4251.54l0 -654.76c0,-728.84 -592.89,-1321.74 -1321.74,-1321.74l-456.53 -0.01c-54.79,-1263.75 -1099.65,-2275.03 -2376.72,-2275.03l-8448.85 0c-1277.07,0 -2321.92,1011.28 -2376.72,2275.03l-459.72 0c-728.84,0 -1321.74,592.89 -1321.74,1321.74l0 654.76c-413.4,146.63 -710.26,541.43 -710.26,1004.35l0 2272.82c0,587.49 477.89,1065.38 1065.38,1065.38 587.49,0 1065.38,-477.89 1065.38,-1065.38l0 -2272.82c0,-462.91 -296.86,-857.72 -710.26,-1004.35l0 -654.76c0,-337.23 274.25,-611.49 611.49,-611.49l457.09 0.01 0 5932.58c-342.78,213.35 -571.39,593.17 -571.39,1025.7l0 5433.45c0,196.15 158.97,355.13 355.13,355.13l216.26 -0.01 0 1100.89c0,744.1 605.39,1349.49 1349.49,1349.49 743.96,0 1349.49,-605.39 1349.49,-1349.49l0 -1100.89 7809.61 0 0 1100.89c0,744.1 605.39,1349.49 1349.49,1349.49 744.1,0 1349.49,-605.39 1349.49,-1349.49l0 -1100.89 213.06 0c196.15,0 355.13,-158.97 355.13,-355.13l3.19 -5433.45c0,-432.53 -228.75,-812.35 -571.39,-1025.7l0 -5932.58 453.89 0.01c337.23,0 611.49,274.25 611.49,611.49l0 654.9c-413.4,146.49 -710.26,541.29 -710.26,1004.2l0 2272.82c0,587.49 477.89,1065.38 1065.38,1065.38 587.49,0 1065.38,-477.89 1065.38,-1065.38l0 -2272.82c0,-462.91 -296.86,-857.72 -710.26,-1004.35l0.01 0zm-16051.76 3277.17c0,195.88 -159.25,355.13 -355.13,355.13 -195.88,0 -355.13,-159.25 -355.13,-355.13l0 -2272.82c0,-195.88 159.25,-355.13 355.13,-355.13 195.88,0 355.13,159.25 355.13,355.13l0 2272.82zm14137.26 2414.86l0 2947.56 -5034.21 -0.01c-196.15,0 -355.13,158.97 -355.13,355.13 0,196.16 158.97,355.13 355.13,355.13l5031.02 0 0 1420.51 -12926.63 0 0 -1420.51 4865.24 0c196.15,0 355.13,-158.97 355.13,-355.13 0,-196.16 -158.97,-355.13 -355.13,-355.13l-4865.24 0 0 -2947.56c0,-274.11 223.07,-497.18 497.18,-497.18l11935.47 0.01c274.11,0 497.18,223.07 497.18,497.18l-0.01 0zm-12358.43 -6958.27l3404.79 0 -2253.39 2253.26c-138.59,138.72 -138.59,363.59 0,502.31 69.36,69.36 160.22,104.04 251.22,104.04 90.86,0 181.72,-34.68 251.08,-104.04l2755.43 -2755.56 1127.8 -0.01 0 778.37 -4972.48 4972.48 -564.46 -0.01 0 -5750.84zm9537.25 0l-1359.89 1359.89c-138.72,138.72 -138.72,363.59 0,502.31 69.36,69.36 160.22,104.04 251.08,104.04 90.86,0 181.86,-34.68 251.08,-104.04l1862.2 -1862.2 1245.31 0 0 661.7c-3.05,2.78 -6.24,5.41 -9.16,8.33l-5080.82 5080.82 -449.87 0 0 -5750.84 3290.06 0zm-7968.31 5750.84l3968 -3968 0 3968 -3968 0zm6132.6 0l4085.49 -4085.49 0 4085.49 -4085.49 0zm-6032.45 -8025.88l8448.85 0c885.32,0 1611.39,692.92 1665.49,1564.78l-11779.97 -0.01c54.1,-871.87 780.31,-1564.78 1665.63,-1564.78l0 0.01zm-390.63 16122.78c0,352.49 -286.88,639.23 -639.23,639.23 -352.49,0 -639.23,-286.74 -639.23,-639.23l0 -1100.89 1278.46 0 0 1100.89zm10508.58 0c0,352.49 -286.74,639.23 -639.23,639.23 -352.49,0 -639.23,-286.74 -639.23,-639.23l0 -1100.89 1278.46 0 0 1100.89zm2485.89 -9304.33c0,195.88 -159.25,355.13 -355.13,355.13 -195.88,0 -355.13,-159.25 -355.13,-355.13l0 -2272.82c0,-195.88 159.25,-355.13 355.13,-355.13 195.88,0 355.13,159.25 355.13,355.13l0 2272.82zm0 0z"/>
   <path class="fil6" d="M10587.79 5991.67c93.36,0 185.05,-38.01 251.08,-104.04 66.03,-66.31 104.04,-157.59 104.04,-251.08 0,-93.78 -38.01,-184.91 -104.04,-251.08 -66.03,-66.31 -157.72,-104.04 -251.08,-104.04 -93.36,0 -185.05,37.73 -251.08,104.04 -66.03,65.76 -104.04,157.31 -104.04,251.08 0,93.5 38.01,185.05 104.04,251.08 66.03,66.03 157.72,104.04 251.08,104.04zm0 0z"/>
   <path class="fil6" d="M9091.27 12891.12c-93.36,0 -185.05,38.01 -251.08,104.04 -66.03,66.03 -104.04,157.72 -104.04,251.08 0,93.36 38.01,185.05 104.04,251.08 66.03,66.03 157.72,104.04 251.08,104.04 93.36,0 185.05,-38.01 251.08,-104.04 66.02,-66.03 104.03,-157.72 104.03,-251.08 0,-93.36 -38.01,-185.05 -104.03,-251.08 -66.03,-66.03 -157.72,-104.04 -251.08,-104.04zm0 0z"/>
   <path class="fil6" d="M4974.98 10103.38c-587.49,0 -1065.38,477.89 -1065.38,1065.38 0,587.49 477.89,1065.38 1065.38,1065.38 587.35,0 1065.38,-477.89 1065.38,-1065.38 0,-587.49 -478.03,-1065.38 -1065.38,-1065.38zm0 1420.51c-195.88,0 -355.13,-159.25 -355.13,-355.13 0,-195.88 159.25,-355.13 355.13,-355.13 195.74,0 355.13,159.25 355.13,355.13 0,195.88 -159.39,355.13 -355.13,355.13zm0 0z"/>
   <path class="fil6" d="M13210.74 12234.13c587.49,0 1065.38,-477.89 1065.38,-1065.38 0,-587.49 -477.89,-1065.38 -1065.38,-1065.38 -587.49,0 -1065.38,477.89 -1065.38,1065.38 0,587.49 477.89,1065.38 1065.38,1065.38zm0 -1420.51c195.88,0 355.13,159.25 355.13,355.13 0,195.88 -159.25,355.13 -355.13,355.13 -195.88,0 -355.13,-159.25 -355.13,-355.13 0,-195.88 159.25,-355.13 355.13,-355.13zm0 0z"/>
   <path class="fil6" d="M7249.18 10103.38c-196.15,0 -355.13,158.97 -355.13,355.13l0 1420.51c0,196.15 158.97,355.13 355.13,355.13l3693.32 -0.01c196.02,0 355.13,-158.97 355.13,-355.13l0 -1420.51c0,-196.15 -159.11,-355.13 -355.13,-355.13l-3693.32 0.01zm3338.19 1420.51l-2983.06 0 0 -710.26 2983.06 0 0 710.26zm0 0z"/>
   <path class="fil6" d="M8469.8 1882.17l1242.93 0c196.15,0 355.13,-158.97 355.13,-355.13 0,-196.16 -158.97,-355.13 -355.13,-355.13l-1242.93 0.01c-196.15,0 -355.13,158.97 -355.13,355.13 0,196.16 158.97,355.13 355.13,355.13l0 -0.01zm0 0z"/>
  </g>
 </g>
</svg>
